solid OpenSCAD_Model
  facet normal -1 0 0
    outer loop
      vertex 7.922726631164551 2 2
      vertex 7.922726631164551 82 9
      vertex 7.922726631164551 82 2
    endloop
  endfacet
  facet normal -1 0 0
    outer loop
      vertex 7.922726631164551 82 9
      vertex 7.922726631164551 2 2
      vertex 7.922726631164551 2 9
    endloop
  endfacet
  facet normal 0 0 1
    outer loop
      vertex 3.34999942779541 82 2
      vertex 7.922726631164551 2 2
      vertex 7.922726631164551 82 2
    endloop
  endfacet
  facet normal 0 0 1
    outer loop
      vertex 7.922726631164551 2 2
      vertex 3.34999942779541 82 2
      vertex 3.34999942779541 2 2
    endloop
  endfacet
  facet normal 1 0 0
    outer loop
      vertex 3.34999942779541 2 9
      vertex 3.34999942779541 82 2
      vertex 3.34999942779541 82 9
    endloop
  endfacet
  facet normal 1 0 0
    outer loop
      vertex 3.34999942779541 82 2
      vertex 3.34999942779541 2 9
      vertex 3.34999942779541 2 2
    endloop
  endfacet
  facet normal 0 -1 0
    outer loop
      vertex 3.34999942779541 82 2
      vertex 7.922726631164551 82 9
      vertex 3.34999942779541 82 9
    endloop
  endfacet
  facet normal 0 -1 0
    outer loop
      vertex 7.922726631164551 82 9
      vertex 3.34999942779541 82 2
      vertex 7.922726631164551 82 2
    endloop
  endfacet
  facet normal 0 1 0
    outer loop
      vertex 7.922726631164551 2 2
      vertex 3.34999942779541 2 9
      vertex 7.922726631164551 2 9
    endloop
  endfacet
  facet normal 0 1 0
    outer loop
      vertex 3.34999942779541 2 9
      vertex 7.922726631164551 2 2
      vertex 3.34999942779541 2 2
    endloop
  endfacet
  facet normal -1 0 0
    outer loop
      vertex 15.195453643798828 2 2
      vertex 15.195453643798828 82 9
      vertex 15.195453643798828 82 2
    endloop
  endfacet
  facet normal -1 0 0
    outer loop
      vertex 15.195453643798828 82 9
      vertex 15.195453643798828 2 2
      vertex 15.195453643798828 2 9
    endloop
  endfacet
  facet normal 0 0 1
    outer loop
      vertex 10.622726440429688 82 2
      vertex 15.195453643798828 2 2
      vertex 15.195453643798828 82 2
    endloop
  endfacet
  facet normal 0 0 1
    outer loop
      vertex 15.195453643798828 2 2
      vertex 10.622726440429688 82 2
      vertex 10.622726440429688 2 2
    endloop
  endfacet
  facet normal 1 0 0
    outer loop
      vertex 10.622726440429688 2 9
      vertex 10.622726440429688 82 2
      vertex 10.622726440429688 82 9
    endloop
  endfacet
  facet normal 1 0 0
    outer loop
      vertex 10.622726440429688 82 2
      vertex 10.622726440429688 2 9
      vertex 10.622726440429688 2 2
    endloop
  endfacet
  facet normal 0 -1 0
    outer loop
      vertex 10.622726440429688 82 2
      vertex 15.195453643798828 82 9
      vertex 10.622726440429688 82 9
    endloop
  endfacet
  facet normal 0 -1 0
    outer loop
      vertex 15.195453643798828 82 9
      vertex 10.622726440429688 82 2
      vertex 15.195453643798828 82 2
    endloop
  endfacet
  facet normal 0 1 0
    outer loop
      vertex 15.195453643798828 2 2
      vertex 10.622726440429688 2 9
      vertex 15.195453643798828 2 9
    endloop
  endfacet
  facet normal 0 1 0
    outer loop
      vertex 10.622726440429688 2 9
      vertex 15.195453643798828 2 2
      vertex 10.622726440429688 2 2
    endloop
  endfacet
  facet normal -1 0 0
    outer loop
      vertex 22.468181610107422 2 2
      vertex 22.468181610107422 82 9
      vertex 22.468181610107422 82 2
    endloop
  endfacet
  facet normal -1 0 0
    outer loop
      vertex 22.468181610107422 82 9
      vertex 22.468181610107422 2 2
      vertex 22.468181610107422 2 9
    endloop
  endfacet
  facet normal 0 0 1
    outer loop
      vertex 17.89545440673828 82 2
      vertex 22.468181610107422 2 2
      vertex 22.468181610107422 82 2
    endloop
  endfacet
  facet normal 0 0 1
    outer loop
      vertex 22.468181610107422 2 2
      vertex 17.89545440673828 82 2
      vertex 17.89545440673828 2 2
    endloop
  endfacet
  facet normal 1 0 0
    outer loop
      vertex 17.89545440673828 2 9
      vertex 17.89545440673828 82 2
      vertex 17.89545440673828 82 9
    endloop
  endfacet
  facet normal 1 0 0
    outer loop
      vertex 17.89545440673828 82 2
      vertex 17.89545440673828 2 9
      vertex 17.89545440673828 2 2
    endloop
  endfacet
  facet normal 0 -1 0
    outer loop
      vertex 17.89545440673828 82 2
      vertex 22.468181610107422 82 9
      vertex 17.89545440673828 82 9
    endloop
  endfacet
  facet normal 0 -1 0
    outer loop
      vertex 22.468181610107422 82 9
      vertex 17.89545440673828 82 2
      vertex 22.468181610107422 82 2
    endloop
  endfacet
  facet normal 0 1 0
    outer loop
      vertex 22.468181610107422 2 2
      vertex 17.89545440673828 2 9
      vertex 22.468181610107422 2 9
    endloop
  endfacet
  facet normal 0 1 0
    outer loop
      vertex 17.89545440673828 2 9
      vertex 22.468181610107422 2 2
      vertex 17.89545440673828 2 2
    endloop
  endfacet
  facet normal -1 0 0
    outer loop
      vertex 29.740909576416016 2 2
      vertex 29.740909576416016 82 9
      vertex 29.740909576416016 82 2
    endloop
  endfacet
  facet normal -1 0 0
    outer loop
      vertex 29.740909576416016 82 9
      vertex 29.740909576416016 2 2
      vertex 29.740909576416016 2 9
    endloop
  endfacet
  facet normal 0 0 1
    outer loop
      vertex 25.168182373046875 82 2
      vertex 29.740909576416016 2 2
      vertex 29.740909576416016 82 2
    endloop
  endfacet
  facet normal 0 0 1
    outer loop
      vertex 29.740909576416016 2 2
      vertex 25.168182373046875 82 2
      vertex 25.168182373046875 2 2
    endloop
  endfacet
  facet normal 1 0 0
    outer loop
      vertex 25.168182373046875 2 9
      vertex 25.168182373046875 82 2
      vertex 25.168182373046875 82 9
    endloop
  endfacet
  facet normal 1 0 0
    outer loop
      vertex 25.168182373046875 82 2
      vertex 25.168182373046875 2 9
      vertex 25.168182373046875 2 2
    endloop
  endfacet
  facet normal 0 -1 0
    outer loop
      vertex 25.168182373046875 82 2
      vertex 29.740909576416016 82 9
      vertex 25.168182373046875 82 9
    endloop
  endfacet
  facet normal 0 -1 0
    outer loop
      vertex 29.740909576416016 82 9
      vertex 25.168182373046875 82 2
      vertex 29.740909576416016 82 2
    endloop
  endfacet
  facet normal 0 1 0
    outer loop
      vertex 29.740909576416016 2 2
      vertex 25.168182373046875 2 9
      vertex 29.740909576416016 2 9
    endloop
  endfacet
  facet normal 0 1 0
    outer loop
      vertex 25.168182373046875 2 9
      vertex 29.740909576416016 2 2
      vertex 25.168182373046875 2 2
    endloop
  endfacet
  facet normal -1 0 0
    outer loop
      vertex 37.013633728027344 2 2
      vertex 37.013633728027344 82 9
      vertex 37.013633728027344 82 2
    endloop
  endfacet
  facet normal -1 0 0
    outer loop
      vertex 37.013633728027344 82 9
      vertex 37.013633728027344 2 2
      vertex 37.013633728027344 2 9
    endloop
  endfacet
  facet normal 0 0 1
    outer loop
      vertex 32.44091033935547 82 2
      vertex 37.013633728027344 2 2
      vertex 37.013633728027344 82 2
    endloop
  endfacet
  facet normal 0 0 1
    outer loop
      vertex 37.013633728027344 2 2
      vertex 32.44091033935547 82 2
      vertex 32.44091033935547 2 2
    endloop
  endfacet
  facet normal 1 0 0
    outer loop
      vertex 32.44091033935547 2 9
      vertex 32.44091033935547 82 2
      vertex 32.44091033935547 82 9
    endloop
  endfacet
  facet normal 1 0 0
    outer loop
      vertex 32.44091033935547 82 2
      vertex 32.44091033935547 2 9
      vertex 32.44091033935547 2 2
    endloop
  endfacet
  facet normal 0 -1 0
    outer loop
      vertex 32.44091033935547 82 2
      vertex 37.013633728027344 82 9
      vertex 32.44091033935547 82 9
    endloop
  endfacet
  facet normal 0 -1 0
    outer loop
      vertex 37.013633728027344 82 9
      vertex 32.44091033935547 82 2
      vertex 37.013633728027344 82 2
    endloop
  endfacet
  facet normal 0 1 0
    outer loop
      vertex 37.013633728027344 2 2
      vertex 32.44091033935547 2 9
      vertex 37.013633728027344 2 9
    endloop
  endfacet
  facet normal 0 1 0
    outer loop
      vertex 32.44091033935547 2 9
      vertex 37.013633728027344 2 2
      vertex 32.44091033935547 2 2
    endloop
  endfacet
  facet normal -1 0 0
    outer loop
      vertex 44.28636169433594 2 2
      vertex 44.28636169433594 82 9
      vertex 44.28636169433594 82 2
    endloop
  endfacet
  facet normal -1 0 0
    outer loop
      vertex 44.28636169433594 82 9
      vertex 44.28636169433594 2 2
      vertex 44.28636169433594 2 9
    endloop
  endfacet
  facet normal 0 0 1
    outer loop
      vertex 39.7136344909668 82 2
      vertex 44.28636169433594 2 2
      vertex 44.28636169433594 82 2
    endloop
  endfacet
  facet normal 0 0 1
    outer loop
      vertex 44.28636169433594 2 2
      vertex 39.7136344909668 82 2
      vertex 39.7136344909668 2 2
    endloop
  endfacet
  facet normal 1 0 0
    outer loop
      vertex 39.7136344909668 2 9
      vertex 39.7136344909668 82 2
      vertex 39.7136344909668 82 9
    endloop
  endfacet
  facet normal 1 0 0
    outer loop
      vertex 39.7136344909668 82 2
      vertex 39.7136344909668 2 9
      vertex 39.7136344909668 2 2
    endloop
  endfacet
  facet normal 0 -1 0
    outer loop
      vertex 39.7136344909668 82 2
      vertex 44.28636169433594 82 9
      vertex 39.7136344909668 82 9
    endloop
  endfacet
  facet normal 0 -1 0
    outer loop
      vertex 44.28636169433594 82 9
      vertex 39.7136344909668 82 2
      vertex 44.28636169433594 82 2
    endloop
  endfacet
  facet normal 0 1 0
    outer loop
      vertex 44.28636169433594 2 2
      vertex 39.7136344909668 2 9
      vertex 44.28636169433594 2 9
    endloop
  endfacet
  facet normal 0 1 0
    outer loop
      vertex 39.7136344909668 2 9
      vertex 44.28636169433594 2 2
      vertex 39.7136344909668 2 2
    endloop
  endfacet
  facet normal -1 0 0
    outer loop
      vertex 51.55908966064453 2 2
      vertex 51.55908966064453 82 9
      vertex 51.55908966064453 82 2
    endloop
  endfacet
  facet normal -1 0 0
    outer loop
      vertex 51.55908966064453 82 9
      vertex 51.55908966064453 2 2
      vertex 51.55908966064453 2 9
    endloop
  endfacet
  facet normal 0 0 1
    outer loop
      vertex 46.98636245727539 82 2
      vertex 51.55908966064453 2 2
      vertex 51.55908966064453 82 2
    endloop
  endfacet
  facet normal 0 0 1
    outer loop
      vertex 51.55908966064453 2 2
      vertex 46.98636245727539 82 2
      vertex 46.98636245727539 2 2
    endloop
  endfacet
  facet normal 1 0 0
    outer loop
      vertex 46.98636245727539 2 9
      vertex 46.98636245727539 82 2
      vertex 46.98636245727539 82 9
    endloop
  endfacet
  facet normal 1 0 0
    outer loop
      vertex 46.98636245727539 82 2
      vertex 46.98636245727539 2 9
      vertex 46.98636245727539 2 2
    endloop
  endfacet
  facet normal 0 -1 0
    outer loop
      vertex 46.98636245727539 82 2
      vertex 51.55908966064453 82 9
      vertex 46.98636245727539 82 9
    endloop
  endfacet
  facet normal 0 -1 0
    outer loop
      vertex 51.55908966064453 82 9
      vertex 46.98636245727539 82 2
      vertex 51.55908966064453 82 2
    endloop
  endfacet
  facet normal 0 1 0
    outer loop
      vertex 51.55908966064453 2 2
      vertex 46.98636245727539 2 9
      vertex 51.55908966064453 2 9
    endloop
  endfacet
  facet normal 0 1 0
    outer loop
      vertex 46.98636245727539 2 9
      vertex 51.55908966064453 2 2
      vertex 46.98636245727539 2 2
    endloop
  endfacet
  facet normal -1 0 0
    outer loop
      vertex 58.831817626953125 2 2
      vertex 58.831817626953125 82 9
      vertex 58.831817626953125 82 2
    endloop
  endfacet
  facet normal -1 0 0
    outer loop
      vertex 58.831817626953125 82 9
      vertex 58.831817626953125 2 2
      vertex 58.831817626953125 2 9
    endloop
  endfacet
  facet normal 0 0 1
    outer loop
      vertex 54.259090423583984 82 2
      vertex 58.831817626953125 2 2
      vertex 58.831817626953125 82 2
    endloop
  endfacet
  facet normal 0 0 1
    outer loop
      vertex 58.831817626953125 2 2
      vertex 54.259090423583984 82 2
      vertex 54.259090423583984 2 2
    endloop
  endfacet
  facet normal 1 0 0
    outer loop
      vertex 54.259090423583984 2 9
      vertex 54.259090423583984 82 2
      vertex 54.259090423583984 82 9
    endloop
  endfacet
  facet normal 1 0 0
    outer loop
      vertex 54.259090423583984 82 2
      vertex 54.259090423583984 2 9
      vertex 54.259090423583984 2 2
    endloop
  endfacet
  facet normal 0 -1 0
    outer loop
      vertex 54.259090423583984 82 2
      vertex 58.831817626953125 82 9
      vertex 54.259090423583984 82 9
    endloop
  endfacet
  facet normal 0 -1 0
    outer loop
      vertex 58.831817626953125 82 9
      vertex 54.259090423583984 82 2
      vertex 58.831817626953125 82 2
    endloop
  endfacet
  facet normal 0 1 0
    outer loop
      vertex 58.831817626953125 2 2
      vertex 54.259090423583984 2 9
      vertex 58.831817626953125 2 9
    endloop
  endfacet
  facet normal 0 1 0
    outer loop
      vertex 54.259090423583984 2 9
      vertex 58.831817626953125 2 2
      vertex 54.259090423583984 2 2
    endloop
  endfacet
  facet normal -1 0 0
    outer loop
      vertex 66.10454559326172 2 2
      vertex 66.10454559326172 82 9
      vertex 66.10454559326172 82 2
    endloop
  endfacet
  facet normal -1 0 0
    outer loop
      vertex 66.10454559326172 82 9
      vertex 66.10454559326172 2 2
      vertex 66.10454559326172 2 9
    endloop
  endfacet
  facet normal 0 0 1
    outer loop
      vertex 61.53181838989258 82 2
      vertex 66.10454559326172 2 2
      vertex 66.10454559326172 82 2
    endloop
  endfacet
  facet normal 0 0 1
    outer loop
      vertex 66.10454559326172 2 2
      vertex 61.53181838989258 82 2
      vertex 61.53181838989258 2 2
    endloop
  endfacet
  facet normal 1 0 0
    outer loop
      vertex 61.53181838989258 2 9
      vertex 61.53181838989258 82 2
      vertex 61.53181838989258 82 9
    endloop
  endfacet
  facet normal 1 0 0
    outer loop
      vertex 61.53181838989258 82 2
      vertex 61.53181838989258 2 9
      vertex 61.53181838989258 2 2
    endloop
  endfacet
  facet normal 0 -1 0
    outer loop
      vertex 61.53181838989258 82 2
      vertex 66.10454559326172 82 9
      vertex 61.53181838989258 82 9
    endloop
  endfacet
  facet normal 0 -1 0
    outer loop
      vertex 66.10454559326172 82 9
      vertex 61.53181838989258 82 2
      vertex 66.10454559326172 82 2
    endloop
  endfacet
  facet normal 0 1 0
    outer loop
      vertex 66.10454559326172 2 2
      vertex 61.53181838989258 2 9
      vertex 66.10454559326172 2 9
    endloop
  endfacet
  facet normal 0 1 0
    outer loop
      vertex 61.53181838989258 2 9
      vertex 66.10454559326172 2 2
      vertex 61.53181838989258 2 2
    endloop
  endfacet
  facet normal -1 0 0
    outer loop
      vertex 73.37727355957031 2 2
      vertex 73.37727355957031 82 9
      vertex 73.37727355957031 82 2
    endloop
  endfacet
  facet normal -1 0 0
    outer loop
      vertex 73.37727355957031 82 9
      vertex 73.37727355957031 2 2
      vertex 73.37727355957031 2 9
    endloop
  endfacet
  facet normal 0 0 1
    outer loop
      vertex 68.8045425415039 82 2
      vertex 73.37727355957031 2 2
      vertex 73.37727355957031 82 2
    endloop
  endfacet
  facet normal 0 0 1
    outer loop
      vertex 73.37727355957031 2 2
      vertex 68.8045425415039 82 2
      vertex 68.8045425415039 2 2
    endloop
  endfacet
  facet normal 1 0 0
    outer loop
      vertex 68.8045425415039 2 9
      vertex 68.8045425415039 82 2
      vertex 68.8045425415039 82 9
    endloop
  endfacet
  facet normal 1 0 0
    outer loop
      vertex 68.8045425415039 82 2
      vertex 68.8045425415039 2 9
      vertex 68.8045425415039 2 2
    endloop
  endfacet
  facet normal 0 -1 0
    outer loop
      vertex 68.8045425415039 82 2
      vertex 73.37727355957031 82 9
      vertex 68.8045425415039 82 9
    endloop
  endfacet
  facet normal 0 -1 0
    outer loop
      vertex 73.37727355957031 82 9
      vertex 68.8045425415039 82 2
      vertex 73.37727355957031 82 2
    endloop
  endfacet
  facet normal 0 1 0
    outer loop
      vertex 73.37727355957031 2 2
      vertex 68.8045425415039 2 9
      vertex 73.37727355957031 2 9
    endloop
  endfacet
  facet normal 0 1 0
    outer loop
      vertex 68.8045425415039 2 9
      vertex 73.37727355957031 2 2
      vertex 68.8045425415039 2 2
    endloop
  endfacet
  facet normal -1 0 0
    outer loop
      vertex 80.6500015258789 2 2
      vertex 80.6500015258789 82 9
      vertex 80.6500015258789 82 2
    endloop
  endfacet
  facet normal -1 0 0
    outer loop
      vertex 80.6500015258789 82 9
      vertex 80.6500015258789 2 2
      vertex 80.6500015258789 2 9
    endloop
  endfacet
  facet normal 0 0 1
    outer loop
      vertex 76.0772705078125 82 2
      vertex 80.6500015258789 2 2
      vertex 80.6500015258789 82 2
    endloop
  endfacet
  facet normal 0 0 1
    outer loop
      vertex 80.6500015258789 2 2
      vertex 76.0772705078125 82 2
      vertex 76.0772705078125 2 2
    endloop
  endfacet
  facet normal 1 0 0
    outer loop
      vertex 76.0772705078125 2 9
      vertex 76.0772705078125 82 2
      vertex 76.0772705078125 82 9
    endloop
  endfacet
  facet normal 1 0 0
    outer loop
      vertex 76.0772705078125 82 2
      vertex 76.0772705078125 2 9
      vertex 76.0772705078125 2 2
    endloop
  endfacet
  facet normal 0 -1 0
    outer loop
      vertex 76.0772705078125 82 2
      vertex 80.6500015258789 82 9
      vertex 76.0772705078125 82 9
    endloop
  endfacet
  facet normal 0 -1 0
    outer loop
      vertex 80.6500015258789 82 9
      vertex 76.0772705078125 82 2
      vertex 80.6500015258789 82 2
    endloop
  endfacet
  facet normal 0 1 0
    outer loop
      vertex 80.6500015258789 2 2
      vertex 76.0772705078125 2 9
      vertex 80.6500015258789 2 9
    endloop
  endfacet
  facet normal 0 1 0
    outer loop
      vertex 76.0772705078125 2 9
      vertex 80.6500015258789 2 2
      vertex 76.0772705078125 2 2
    endloop
  endfacet
  facet normal 1 0 0
    outer loop
      vertex 84 0 9
      vertex 84 84 0
      vertex 84 84 9
    endloop
  endfacet
  facet normal 1 0 0
    outer loop
      vertex 84 84 0
      vertex 84 0 9
      vertex 84 0 0
    endloop
  endfacet
  facet normal 0 0 1
    outer loop
      vertex 84 84 9
      vertex 80.6500015258789 82 9
      vertex 84 0 9
    endloop
  endfacet
  facet normal 0 0 1
    outer loop
      vertex 84 84 9
      vertex 76.0772705078125 82 9
      vertex 80.6500015258789 82 9
    endloop
  endfacet
  facet normal 0 0 1
    outer loop
      vertex 76.0772705078125 82 9
      vertex 73.37727355957031 82 9
      vertex 76.0772705078125 2 9
    endloop
  endfacet
  facet normal 0 0 1
    outer loop
      vertex 84 84 9
      vertex 73.37727355957031 82 9
      vertex 76.0772705078125 82 9
    endloop
  endfacet
  facet normal 0 0 1
    outer loop
      vertex 84 84 9
      vertex 68.8045425415039 82 9
      vertex 73.37727355957031 82 9
    endloop
  endfacet
  facet normal 0 0 1
    outer loop
      vertex 68.8045425415039 82 9
      vertex 66.10454559326172 82 9
      vertex 68.8045425415039 2 9
    endloop
  endfacet
  facet normal 0 0 1
    outer loop
      vertex 84 84 9
      vertex 66.10454559326172 82 9
      vertex 68.8045425415039 82 9
    endloop
  endfacet
  facet normal 0 0 1
    outer loop
      vertex 84 84 9
      vertex 61.53181838989258 82 9
      vertex 66.10454559326172 82 9
    endloop
  endfacet
  facet normal 0 0 1
    outer loop
      vertex 61.53181838989258 82 9
      vertex 58.831817626953125 82 9
      vertex 61.53181838989258 2 9
    endloop
  endfacet
  facet normal 0 0 1
    outer loop
      vertex 84 84 9
      vertex 58.831817626953125 82 9
      vertex 61.53181838989258 82 9
    endloop
  endfacet
  facet normal 0 0 1
    outer loop
      vertex 84 84 9
      vertex 54.259090423583984 82 9
      vertex 58.831817626953125 82 9
    endloop
  endfacet
  facet normal 0 0 1
    outer loop
      vertex 54.259090423583984 82 9
      vertex 51.55908966064453 82 9
      vertex 54.259090423583984 2 9
    endloop
  endfacet
  facet normal 0 0 1
    outer loop
      vertex 84 84 9
      vertex 51.55908966064453 82 9
      vertex 54.259090423583984 82 9
    endloop
  endfacet
  facet normal 0 0 1
    outer loop
      vertex 84 84 9
      vertex 46.98636245727539 82 9
      vertex 51.55908966064453 82 9
    endloop
  endfacet
  facet normal 0 0 1
    outer loop
      vertex 46.98636245727539 82 9
      vertex 44.28636169433594 82 9
      vertex 46.98636245727539 2 9
    endloop
  endfacet
  facet normal 0 0 1
    outer loop
      vertex 84 84 9
      vertex 44.28636169433594 82 9
      vertex 46.98636245727539 82 9
    endloop
  endfacet
  facet normal 0 0 1
    outer loop
      vertex 84 84 9
      vertex 39.7136344909668 82 9
      vertex 44.28636169433594 82 9
    endloop
  endfacet
  facet normal 0 0 1
    outer loop
      vertex 39.7136344909668 82 9
      vertex 37.013633728027344 82 9
      vertex 39.7136344909668 2 9
    endloop
  endfacet
  facet normal 0 0 1
    outer loop
      vertex 84 84 9
      vertex 37.013633728027344 82 9
      vertex 39.7136344909668 82 9
    endloop
  endfacet
  facet normal 0 0 1
    outer loop
      vertex 0 84 9
      vertex 37.013633728027344 82 9
      vertex 84 84 9
    endloop
  endfacet
  facet normal 0 0 1
    outer loop
      vertex 32.44091033935547 82 9
      vertex 29.740909576416016 82 9
      vertex 32.44091033935547 2 9
    endloop
  endfacet
  facet normal 0 0 1
    outer loop
      vertex 37.013633728027344 82 9
      vertex 0 84 9
      vertex 32.44091033935547 82 9
    endloop
  endfacet
  facet normal 0 0 1
    outer loop
      vertex 32.44091033935547 82 9
      vertex 0 84 9
      vertex 29.740909576416016 82 9
    endloop
  endfacet
  facet normal 0 0 1
    outer loop
      vertex 25.168182373046875 82 9
      vertex 22.468181610107422 82 9
      vertex 25.168182373046875 2 9
    endloop
  endfacet
  facet normal 0 0 1
    outer loop
      vertex 29.740909576416016 82 9
      vertex 0 84 9
      vertex 25.168182373046875 82 9
    endloop
  endfacet
  facet normal 0 0 1
    outer loop
      vertex 25.168182373046875 82 9
      vertex 0 84 9
      vertex 22.468181610107422 82 9
    endloop
  endfacet
  facet normal 0 0 1
    outer loop
      vertex 17.89545440673828 82 9
      vertex 15.195453643798828 82 9
      vertex 17.89545440673828 2 9
    endloop
  endfacet
  facet normal 0 0 1
    outer loop
      vertex 22.468181610107422 82 9
      vertex 0 84 9
      vertex 17.89545440673828 82 9
    endloop
  endfacet
  facet normal 0 0 1
    outer loop
      vertex 17.89545440673828 82 9
      vertex 0 84 9
      vertex 15.195453643798828 82 9
    endloop
  endfacet
  facet normal 0 0 1
    outer loop
      vertex 10.622726440429688 82 9
      vertex 7.922726631164551 82 9
      vertex 10.622726440429688 2 9
    endloop
  endfacet
  facet normal 0 0 1
    outer loop
      vertex 15.195453643798828 82 9
      vertex 0 84 9
      vertex 10.622726440429688 82 9
    endloop
  endfacet
  facet normal 0 0 1
    outer loop
      vertex 10.622726440429688 82 9
      vertex 0 84 9
      vertex 7.922726631164551 82 9
    endloop
  endfacet
  facet normal 0 0 1
    outer loop
      vertex 3.34999942779541 82 9
      vertex 0 84 9
      vertex 3.34999942779541 2 9
    endloop
  endfacet
  facet normal 0 0 1
    outer loop
      vertex 7.922726631164551 82 9
      vertex 0 84 9
      vertex 3.34999942779541 82 9
    endloop
  endfacet
  facet normal 0 0 1
    outer loop
      vertex 80.6500015258789 2 9
      vertex 84 0 9
      vertex 80.6500015258789 82 9
    endloop
  endfacet
  facet normal 0 0 1
    outer loop
      vertex 76.0772705078125 2 9
      vertex 84 0 9
      vertex 80.6500015258789 2 9
    endloop
  endfacet
  facet normal 0 0 1
    outer loop
      vertex 73.37727355957031 2 9
      vertex 76.0772705078125 2 9
      vertex 73.37727355957031 82 9
    endloop
  endfacet
  facet normal 0 0 1
    outer loop
      vertex 73.37727355957031 2 9
      vertex 84 0 9
      vertex 76.0772705078125 2 9
    endloop
  endfacet
  facet normal 0 0 1
    outer loop
      vertex 68.8045425415039 2 9
      vertex 84 0 9
      vertex 73.37727355957031 2 9
    endloop
  endfacet
  facet normal 0 0 1
    outer loop
      vertex 66.10454559326172 2 9
      vertex 68.8045425415039 2 9
      vertex 66.10454559326172 82 9
    endloop
  endfacet
  facet normal 0 0 1
    outer loop
      vertex 66.10454559326172 2 9
      vertex 84 0 9
      vertex 68.8045425415039 2 9
    endloop
  endfacet
  facet normal 0 0 1
    outer loop
      vertex 61.53181838989258 2 9
      vertex 84 0 9
      vertex 66.10454559326172 2 9
    endloop
  endfacet
  facet normal 0 0 1
    outer loop
      vertex 58.831817626953125 2 9
      vertex 61.53181838989258 2 9
      vertex 58.831817626953125 82 9
    endloop
  endfacet
  facet normal 0 0 1
    outer loop
      vertex 58.831817626953125 2 9
      vertex 84 0 9
      vertex 61.53181838989258 2 9
    endloop
  endfacet
  facet normal 0 0 1
    outer loop
      vertex 54.259090423583984 2 9
      vertex 84 0 9
      vertex 58.831817626953125 2 9
    endloop
  endfacet
  facet normal 0 0 1
    outer loop
      vertex 51.55908966064453 2 9
      vertex 54.259090423583984 2 9
      vertex 51.55908966064453 82 9
    endloop
  endfacet
  facet normal 0 0 1
    outer loop
      vertex 51.55908966064453 2 9
      vertex 84 0 9
      vertex 54.259090423583984 2 9
    endloop
  endfacet
  facet normal 0 0 1
    outer loop
      vertex 46.98636245727539 2 9
      vertex 84 0 9
      vertex 51.55908966064453 2 9
    endloop
  endfacet
  facet normal 0 0 1
    outer loop
      vertex 44.28636169433594 2 9
      vertex 46.98636245727539 2 9
      vertex 44.28636169433594 82 9
    endloop
  endfacet
  facet normal 0 0 1
    outer loop
      vertex 44.28636169433594 2 9
      vertex 84 0 9
      vertex 46.98636245727539 2 9
    endloop
  endfacet
  facet normal 0 0 1
    outer loop
      vertex 39.7136344909668 2 9
      vertex 84 0 9
      vertex 44.28636169433594 2 9
    endloop
  endfacet
  facet normal 0 0 1
    outer loop
      vertex 37.013633728027344 2 9
      vertex 39.7136344909668 2 9
      vertex 37.013633728027344 82 9
    endloop
  endfacet
  facet normal 0 0 1
    outer loop
      vertex 37.013633728027344 2 9
      vertex 84 0 9
      vertex 39.7136344909668 2 9
    endloop
  endfacet
  facet normal 0 0 1
    outer loop
      vertex 0 0 9
      vertex 37.013633728027344 2 9
      vertex 32.44091033935547 2 9
    endloop
  endfacet
  facet normal 0 0 1
    outer loop
      vertex 29.740909576416016 2 9
      vertex 32.44091033935547 2 9
      vertex 29.740909576416016 82 9
    endloop
  endfacet
  facet normal 0 0 1
    outer loop
      vertex 0 0 9
      vertex 32.44091033935547 2 9
      vertex 29.740909576416016 2 9
    endloop
  endfacet
  facet normal 0 0 1
    outer loop
      vertex 0 0 9
      vertex 29.740909576416016 2 9
      vertex 25.168182373046875 2 9
    endloop
  endfacet
  facet normal 0 0 1
    outer loop
      vertex 22.468181610107422 2 9
      vertex 25.168182373046875 2 9
      vertex 22.468181610107422 82 9
    endloop
  endfacet
  facet normal 0 0 1
    outer loop
      vertex 0 0 9
      vertex 25.168182373046875 2 9
      vertex 22.468181610107422 2 9
    endloop
  endfacet
  facet normal 0 0 1
    outer loop
      vertex 0 0 9
      vertex 22.468181610107422 2 9
      vertex 17.89545440673828 2 9
    endloop
  endfacet
  facet normal 0 0 1
    outer loop
      vertex 15.195453643798828 2 9
      vertex 17.89545440673828 2 9
      vertex 15.195453643798828 82 9
    endloop
  endfacet
  facet normal 0 0 1
    outer loop
      vertex 0 0 9
      vertex 17.89545440673828 2 9
      vertex 15.195453643798828 2 9
    endloop
  endfacet
  facet normal 0 0 1
    outer loop
      vertex 0 0 9
      vertex 15.195453643798828 2 9
      vertex 10.622726440429688 2 9
    endloop
  endfacet
  facet normal 0 0 1
    outer loop
      vertex 7.922726631164551 2 9
      vertex 10.622726440429688 2 9
      vertex 7.922726631164551 82 9
    endloop
  endfacet
  facet normal 0 0 1
    outer loop
      vertex 0 0 9
      vertex 10.622726440429688 2 9
      vertex 7.922726631164551 2 9
    endloop
  endfacet
  facet normal 0 0 1
    outer loop
      vertex 0 0 9
      vertex 7.922726631164551 2 9
      vertex 3.34999942779541 2 9
    endloop
  endfacet
  facet normal 0 0 1
    outer loop
      vertex 37.013633728027344 2 9
      vertex 0 0 9
      vertex 84 0 9
    endloop
  endfacet
  facet normal 0 0 1
    outer loop
      vertex 0 0 9
      vertex 3.34999942779541 2 9
      vertex 0 84 9
    endloop
  endfacet
  facet normal 0 0 -1
    outer loop
      vertex 0 0 0
      vertex 84 84 0
      vertex 84 0 0
    endloop
  endfacet
  facet normal 0 0 -1
    outer loop
      vertex 84 84 0
      vertex 0 0 0
      vertex 0 84 0
    endloop
  endfacet
  facet normal -1 0 0
    outer loop
      vertex 0 0 0
      vertex 0 84 9
      vertex 0 84 0
    endloop
  endfacet
  facet normal -1 0 0
    outer loop
      vertex 0 84 9
      vertex 0 0 0
      vertex 0 0 9
    endloop
  endfacet
  facet normal 0 1 0
    outer loop
      vertex 84 84 0
      vertex 0 84 9
      vertex 84 84 9
    endloop
  endfacet
  facet normal 0 1 0
    outer loop
      vertex 0 84 9
      vertex 84 84 0
      vertex 0 84 0
    endloop
  endfacet
  facet normal 0 -1 0
    outer loop
      vertex 0 0 0
      vertex 84 0 9
      vertex 0 0 9
    endloop
  endfacet
  facet normal 0 -1 0
    outer loop
      vertex 84 0 9
      vertex 0 0 0
      vertex 84 0 0
    endloop
  endfacet
endsolid OpenSCAD_Model
