solid OpenSCAD_Model
  facet normal -1 0 0
    outer loop
      vertex 83 3.84999942779541 5
      vertex 83 7.483332633972168 10
      vertex 83 7.483332633972168 5
    endloop
  endfacet
  facet normal -1 0 0
    outer loop
      vertex 83 7.483332633972168 10
      vertex 83 3.84999942779541 5
      vertex 83 3.84999942779541 10
    endloop
  endfacet
  facet normal 0 0 1
    outer loop
      vertex 3 7.483332633972168 5
      vertex 83 3.84999942779541 5
      vertex 83 7.483332633972168 5
    endloop
  endfacet
  facet normal 0 0 1
    outer loop
      vertex 83 3.84999942779541 5
      vertex 3 7.483332633972168 5
      vertex 3 3.84999942779541 5
    endloop
  endfacet
  facet normal 1 0 0
    outer loop
      vertex 3 3.84999942779541 10
      vertex 3 7.483332633972168 5
      vertex 3 7.483332633972168 10
    endloop
  endfacet
  facet normal 1 0 0
    outer loop
      vertex 3 7.483332633972168 5
      vertex 3 3.84999942779541 10
      vertex 3 3.84999942779541 5
    endloop
  endfacet
  facet normal 0 -1 0
    outer loop
      vertex 3 7.483332633972168 5
      vertex 83 7.483332633972168 10
      vertex 3 7.483332633972168 10
    endloop
  endfacet
  facet normal 0 -1 0
    outer loop
      vertex 83 7.483332633972168 10
      vertex 3 7.483332633972168 5
      vertex 83 7.483332633972168 5
    endloop
  endfacet
  facet normal 0 1 0
    outer loop
      vertex 83 3.84999942779541 5
      vertex 3 3.84999942779541 10
      vertex 83 3.84999942779541 10
    endloop
  endfacet
  facet normal 0 1 0
    outer loop
      vertex 3 3.84999942779541 10
      vertex 83 3.84999942779541 5
      vertex 3 3.84999942779541 5
    endloop
  endfacet
  facet normal -1 0 0
    outer loop
      vertex 83 9.183332443237305 5
      vertex 83 12.816666603088379 10
      vertex 83 12.816666603088379 5
    endloop
  endfacet
  facet normal -1 0 0
    outer loop
      vertex 83 12.816666603088379 10
      vertex 83 9.183332443237305 5
      vertex 83 9.183332443237305 10
    endloop
  endfacet
  facet normal 0 0 1
    outer loop
      vertex 3 12.816666603088379 5
      vertex 83 9.183332443237305 5
      vertex 83 12.816666603088379 5
    endloop
  endfacet
  facet normal 0 0 1
    outer loop
      vertex 83 9.183332443237305 5
      vertex 3 12.816666603088379 5
      vertex 3 9.183332443237305 5
    endloop
  endfacet
  facet normal 1 0 0
    outer loop
      vertex 3 9.183332443237305 10
      vertex 3 12.816666603088379 5
      vertex 3 12.816666603088379 10
    endloop
  endfacet
  facet normal 1 0 0
    outer loop
      vertex 3 12.816666603088379 5
      vertex 3 9.183332443237305 10
      vertex 3 9.183332443237305 5
    endloop
  endfacet
  facet normal 0 -1 0
    outer loop
      vertex 3 12.816666603088379 5
      vertex 83 12.816666603088379 10
      vertex 3 12.816666603088379 10
    endloop
  endfacet
  facet normal 0 -1 0
    outer loop
      vertex 83 12.816666603088379 10
      vertex 3 12.816666603088379 5
      vertex 83 12.816666603088379 5
    endloop
  endfacet
  facet normal 0 1 0
    outer loop
      vertex 83 9.183332443237305 5
      vertex 3 9.183332443237305 10
      vertex 83 9.183332443237305 10
    endloop
  endfacet
  facet normal 0 1 0
    outer loop
      vertex 3 9.183332443237305 10
      vertex 83 9.183332443237305 5
      vertex 3 9.183332443237305 5
    endloop
  endfacet
  facet normal -1 0 0
    outer loop
      vertex 83 14.516666412353516 5
      vertex 83 18.149999618530273 10
      vertex 83 18.149999618530273 5
    endloop
  endfacet
  facet normal -1 0 0
    outer loop
      vertex 83 18.149999618530273 10
      vertex 83 14.516666412353516 5
      vertex 83 14.516666412353516 10
    endloop
  endfacet
  facet normal 0 0 1
    outer loop
      vertex 3 18.149999618530273 5
      vertex 83 14.516666412353516 5
      vertex 83 18.149999618530273 5
    endloop
  endfacet
  facet normal 0 0 1
    outer loop
      vertex 83 14.516666412353516 5
      vertex 3 18.149999618530273 5
      vertex 3 14.516666412353516 5
    endloop
  endfacet
  facet normal 1 0 0
    outer loop
      vertex 3 14.516666412353516 10
      vertex 3 18.149999618530273 5
      vertex 3 18.149999618530273 10
    endloop
  endfacet
  facet normal 1 0 0
    outer loop
      vertex 3 18.149999618530273 5
      vertex 3 14.516666412353516 10
      vertex 3 14.516666412353516 5
    endloop
  endfacet
  facet normal 0 -1 0
    outer loop
      vertex 3 18.149999618530273 5
      vertex 83 18.149999618530273 10
      vertex 3 18.149999618530273 10
    endloop
  endfacet
  facet normal 0 -1 0
    outer loop
      vertex 83 18.149999618530273 10
      vertex 3 18.149999618530273 5
      vertex 83 18.149999618530273 5
    endloop
  endfacet
  facet normal 0 1 0
    outer loop
      vertex 83 14.516666412353516 5
      vertex 3 14.516666412353516 10
      vertex 83 14.516666412353516 10
    endloop
  endfacet
  facet normal 0 1 0
    outer loop
      vertex 3 14.516666412353516 10
      vertex 83 14.516666412353516 5
      vertex 3 14.516666412353516 5
    endloop
  endfacet
  facet normal -1 0 0
    outer loop
      vertex 83 19.849998474121094 5
      vertex 83 23.483333587646484 10
      vertex 83 23.483333587646484 5
    endloop
  endfacet
  facet normal -1 0 0
    outer loop
      vertex 83 23.483333587646484 10
      vertex 83 19.849998474121094 5
      vertex 83 19.849998474121094 10
    endloop
  endfacet
  facet normal 0 0 1
    outer loop
      vertex 3 23.483333587646484 5
      vertex 83 19.849998474121094 5
      vertex 83 23.483333587646484 5
    endloop
  endfacet
  facet normal 0 0 1
    outer loop
      vertex 83 19.849998474121094 5
      vertex 3 23.483333587646484 5
      vertex 3 19.849998474121094 5
    endloop
  endfacet
  facet normal 1 0 0
    outer loop
      vertex 3 19.849998474121094 10
      vertex 3 23.483333587646484 5
      vertex 3 23.483333587646484 10
    endloop
  endfacet
  facet normal 1 0 0
    outer loop
      vertex 3 23.483333587646484 5
      vertex 3 19.849998474121094 10
      vertex 3 19.849998474121094 5
    endloop
  endfacet
  facet normal 0 -1 0
    outer loop
      vertex 3 23.483333587646484 5
      vertex 83 23.483333587646484 10
      vertex 3 23.483333587646484 10
    endloop
  endfacet
  facet normal 0 -1 0
    outer loop
      vertex 83 23.483333587646484 10
      vertex 3 23.483333587646484 5
      vertex 83 23.483333587646484 5
    endloop
  endfacet
  facet normal 0 1 0
    outer loop
      vertex 83 19.849998474121094 5
      vertex 3 19.849998474121094 10
      vertex 83 19.849998474121094 10
    endloop
  endfacet
  facet normal 0 1 0
    outer loop
      vertex 3 19.849998474121094 10
      vertex 83 19.849998474121094 5
      vertex 3 19.849998474121094 5
    endloop
  endfacet
  facet normal -1 0 0
    outer loop
      vertex 83 25.183332443237305 5
      vertex 83 28.816665649414062 10
      vertex 83 28.816665649414062 5
    endloop
  endfacet
  facet normal -1 0 0
    outer loop
      vertex 83 28.816665649414062 10
      vertex 83 25.183332443237305 5
      vertex 83 25.183332443237305 10
    endloop
  endfacet
  facet normal 0 0 1
    outer loop
      vertex 3 28.816665649414062 5
      vertex 83 25.183332443237305 5
      vertex 83 28.816665649414062 5
    endloop
  endfacet
  facet normal 0 0 1
    outer loop
      vertex 83 25.183332443237305 5
      vertex 3 28.816665649414062 5
      vertex 3 25.183332443237305 5
    endloop
  endfacet
  facet normal 1 0 0
    outer loop
      vertex 3 25.183332443237305 10
      vertex 3 28.816665649414062 5
      vertex 3 28.816665649414062 10
    endloop
  endfacet
  facet normal 1 0 0
    outer loop
      vertex 3 28.816665649414062 5
      vertex 3 25.183332443237305 10
      vertex 3 25.183332443237305 5
    endloop
  endfacet
  facet normal 0 -1 0
    outer loop
      vertex 3 28.816665649414062 5
      vertex 83 28.816665649414062 10
      vertex 3 28.816665649414062 10
    endloop
  endfacet
  facet normal 0 -1 0
    outer loop
      vertex 83 28.816665649414062 10
      vertex 3 28.816665649414062 5
      vertex 83 28.816665649414062 5
    endloop
  endfacet
  facet normal 0 1 0
    outer loop
      vertex 83 25.183332443237305 5
      vertex 3 25.183332443237305 10
      vertex 83 25.183332443237305 10
    endloop
  endfacet
  facet normal 0 1 0
    outer loop
      vertex 3 25.183332443237305 10
      vertex 83 25.183332443237305 5
      vertex 3 25.183332443237305 5
    endloop
  endfacet
  facet normal -1 0 0
    outer loop
      vertex 83 30.516666412353516 5
      vertex 83 34.150001525878906 10
      vertex 83 34.150001525878906 5
    endloop
  endfacet
  facet normal -1 0 0
    outer loop
      vertex 83 34.150001525878906 10
      vertex 83 30.516666412353516 5
      vertex 83 30.516666412353516 10
    endloop
  endfacet
  facet normal 0 0 1
    outer loop
      vertex 3 34.150001525878906 5
      vertex 83 30.516666412353516 5
      vertex 83 34.150001525878906 5
    endloop
  endfacet
  facet normal 0 0 1
    outer loop
      vertex 83 30.516666412353516 5
      vertex 3 34.150001525878906 5
      vertex 3 30.516666412353516 5
    endloop
  endfacet
  facet normal 1 0 0
    outer loop
      vertex 3 30.516666412353516 10
      vertex 3 34.150001525878906 5
      vertex 3 34.150001525878906 10
    endloop
  endfacet
  facet normal 1 0 0
    outer loop
      vertex 3 34.150001525878906 5
      vertex 3 30.516666412353516 10
      vertex 3 30.516666412353516 5
    endloop
  endfacet
  facet normal 0 -1 0
    outer loop
      vertex 3 34.150001525878906 5
      vertex 83 34.150001525878906 10
      vertex 3 34.150001525878906 10
    endloop
  endfacet
  facet normal 0 -1 0
    outer loop
      vertex 83 34.150001525878906 10
      vertex 3 34.150001525878906 5
      vertex 83 34.150001525878906 5
    endloop
  endfacet
  facet normal 0 1 0
    outer loop
      vertex 83 30.516666412353516 5
      vertex 3 30.516666412353516 10
      vertex 83 30.516666412353516 10
    endloop
  endfacet
  facet normal 0 1 0
    outer loop
      vertex 3 30.516666412353516 10
      vertex 83 30.516666412353516 5
      vertex 3 30.516666412353516 5
    endloop
  endfacet
  facet normal -1 0 0
    outer loop
      vertex 83 35.849998474121094 5
      vertex 83 39.483333587646484 10
      vertex 83 39.483333587646484 5
    endloop
  endfacet
  facet normal -1 0 0
    outer loop
      vertex 83 39.483333587646484 10
      vertex 83 35.849998474121094 5
      vertex 83 35.849998474121094 10
    endloop
  endfacet
  facet normal 0 0 1
    outer loop
      vertex 3 39.483333587646484 5
      vertex 83 35.849998474121094 5
      vertex 83 39.483333587646484 5
    endloop
  endfacet
  facet normal 0 0 1
    outer loop
      vertex 83 35.849998474121094 5
      vertex 3 39.483333587646484 5
      vertex 3 35.849998474121094 5
    endloop
  endfacet
  facet normal 1 0 0
    outer loop
      vertex 3 35.849998474121094 10
      vertex 3 39.483333587646484 5
      vertex 3 39.483333587646484 10
    endloop
  endfacet
  facet normal 1 0 0
    outer loop
      vertex 3 39.483333587646484 5
      vertex 3 35.849998474121094 10
      vertex 3 35.849998474121094 5
    endloop
  endfacet
  facet normal 0 -1 0
    outer loop
      vertex 3 39.483333587646484 5
      vertex 83 39.483333587646484 10
      vertex 3 39.483333587646484 10
    endloop
  endfacet
  facet normal 0 -1 0
    outer loop
      vertex 83 39.483333587646484 10
      vertex 3 39.483333587646484 5
      vertex 83 39.483333587646484 5
    endloop
  endfacet
  facet normal 0 1 0
    outer loop
      vertex 83 35.849998474121094 5
      vertex 3 35.849998474121094 10
      vertex 83 35.849998474121094 10
    endloop
  endfacet
  facet normal 0 1 0
    outer loop
      vertex 3 35.849998474121094 10
      vertex 83 35.849998474121094 5
      vertex 3 35.849998474121094 5
    endloop
  endfacet
  facet normal -1 0 0
    outer loop
      vertex 83 41.18333435058594 5
      vertex 83 44.81666564941406 10
      vertex 83 44.81666564941406 5
    endloop
  endfacet
  facet normal -1 0 0
    outer loop
      vertex 83 44.81666564941406 10
      vertex 83 41.18333435058594 5
      vertex 83 41.18333435058594 10
    endloop
  endfacet
  facet normal 0 0 1
    outer loop
      vertex 3 44.81666564941406 5
      vertex 83 41.18333435058594 5
      vertex 83 44.81666564941406 5
    endloop
  endfacet
  facet normal 0 0 1
    outer loop
      vertex 83 41.18333435058594 5
      vertex 3 44.81666564941406 5
      vertex 3 41.18333435058594 5
    endloop
  endfacet
  facet normal 1 0 0
    outer loop
      vertex 3 41.18333435058594 10
      vertex 3 44.81666564941406 5
      vertex 3 44.81666564941406 10
    endloop
  endfacet
  facet normal 1 0 0
    outer loop
      vertex 3 44.81666564941406 5
      vertex 3 41.18333435058594 10
      vertex 3 41.18333435058594 5
    endloop
  endfacet
  facet normal 0 -1 0
    outer loop
      vertex 3 44.81666564941406 5
      vertex 83 44.81666564941406 10
      vertex 3 44.81666564941406 10
    endloop
  endfacet
  facet normal 0 -1 0
    outer loop
      vertex 83 44.81666564941406 10
      vertex 3 44.81666564941406 5
      vertex 83 44.81666564941406 5
    endloop
  endfacet
  facet normal 0 1 0
    outer loop
      vertex 83 41.18333435058594 5
      vertex 3 41.18333435058594 10
      vertex 83 41.18333435058594 10
    endloop
  endfacet
  facet normal 0 1 0
    outer loop
      vertex 3 41.18333435058594 10
      vertex 83 41.18333435058594 5
      vertex 3 41.18333435058594 5
    endloop
  endfacet
  facet normal -1 0 0
    outer loop
      vertex 83 46.516666412353516 5
      vertex 83 50.150001525878906 10
      vertex 83 50.150001525878906 5
    endloop
  endfacet
  facet normal -1 0 0
    outer loop
      vertex 83 50.150001525878906 10
      vertex 83 46.516666412353516 5
      vertex 83 46.516666412353516 10
    endloop
  endfacet
  facet normal 0 0 1
    outer loop
      vertex 3 50.150001525878906 5
      vertex 83 46.516666412353516 5
      vertex 83 50.150001525878906 5
    endloop
  endfacet
  facet normal 0 0 1
    outer loop
      vertex 83 46.516666412353516 5
      vertex 3 50.150001525878906 5
      vertex 3 46.516666412353516 5
    endloop
  endfacet
  facet normal 1 0 0
    outer loop
      vertex 3 46.516666412353516 10
      vertex 3 50.150001525878906 5
      vertex 3 50.150001525878906 10
    endloop
  endfacet
  facet normal 1 0 0
    outer loop
      vertex 3 50.150001525878906 5
      vertex 3 46.516666412353516 10
      vertex 3 46.516666412353516 5
    endloop
  endfacet
  facet normal 0 -1 0
    outer loop
      vertex 3 50.150001525878906 5
      vertex 83 50.150001525878906 10
      vertex 3 50.150001525878906 10
    endloop
  endfacet
  facet normal 0 -1 0
    outer loop
      vertex 83 50.150001525878906 10
      vertex 3 50.150001525878906 5
      vertex 83 50.150001525878906 5
    endloop
  endfacet
  facet normal 0 1 0
    outer loop
      vertex 83 46.516666412353516 5
      vertex 3 46.516666412353516 10
      vertex 83 46.516666412353516 10
    endloop
  endfacet
  facet normal 0 1 0
    outer loop
      vertex 3 46.516666412353516 10
      vertex 83 46.516666412353516 5
      vertex 3 46.516666412353516 5
    endloop
  endfacet
  facet normal -1 0 0
    outer loop
      vertex 83 51.849998474121094 5
      vertex 83 55.483333587646484 10
      vertex 83 55.483333587646484 5
    endloop
  endfacet
  facet normal -1 0 0
    outer loop
      vertex 83 55.483333587646484 10
      vertex 83 51.849998474121094 5
      vertex 83 51.849998474121094 10
    endloop
  endfacet
  facet normal 0 0 1
    outer loop
      vertex 3 55.483333587646484 5
      vertex 83 51.849998474121094 5
      vertex 83 55.483333587646484 5
    endloop
  endfacet
  facet normal 0 0 1
    outer loop
      vertex 83 51.849998474121094 5
      vertex 3 55.483333587646484 5
      vertex 3 51.849998474121094 5
    endloop
  endfacet
  facet normal 1 0 0
    outer loop
      vertex 3 51.849998474121094 10
      vertex 3 55.483333587646484 5
      vertex 3 55.483333587646484 10
    endloop
  endfacet
  facet normal 1 0 0
    outer loop
      vertex 3 55.483333587646484 5
      vertex 3 51.849998474121094 10
      vertex 3 51.849998474121094 5
    endloop
  endfacet
  facet normal 0 -1 0
    outer loop
      vertex 3 55.483333587646484 5
      vertex 83 55.483333587646484 10
      vertex 3 55.483333587646484 10
    endloop
  endfacet
  facet normal 0 -1 0
    outer loop
      vertex 83 55.483333587646484 10
      vertex 3 55.483333587646484 5
      vertex 83 55.483333587646484 5
    endloop
  endfacet
  facet normal 0 1 0
    outer loop
      vertex 83 51.849998474121094 5
      vertex 3 51.849998474121094 10
      vertex 83 51.849998474121094 10
    endloop
  endfacet
  facet normal 0 1 0
    outer loop
      vertex 3 51.849998474121094 10
      vertex 83 51.849998474121094 5
      vertex 3 51.849998474121094 5
    endloop
  endfacet
  facet normal -1 0 0
    outer loop
      vertex 83 57.18333435058594 5
      vertex 83 60.81666564941406 10
      vertex 83 60.81666564941406 5
    endloop
  endfacet
  facet normal -1 0 0
    outer loop
      vertex 83 60.81666564941406 10
      vertex 83 57.18333435058594 5
      vertex 83 57.18333435058594 10
    endloop
  endfacet
  facet normal 0 0 1
    outer loop
      vertex 3 60.81666564941406 5
      vertex 83 57.18333435058594 5
      vertex 83 60.81666564941406 5
    endloop
  endfacet
  facet normal 0 0 1
    outer loop
      vertex 83 57.18333435058594 5
      vertex 3 60.81666564941406 5
      vertex 3 57.18333435058594 5
    endloop
  endfacet
  facet normal 1 0 0
    outer loop
      vertex 3 57.18333435058594 10
      vertex 3 60.81666564941406 5
      vertex 3 60.81666564941406 10
    endloop
  endfacet
  facet normal 1 0 0
    outer loop
      vertex 3 60.81666564941406 5
      vertex 3 57.18333435058594 10
      vertex 3 57.18333435058594 5
    endloop
  endfacet
  facet normal 0 -1 0
    outer loop
      vertex 3 60.81666564941406 5
      vertex 83 60.81666564941406 10
      vertex 3 60.81666564941406 10
    endloop
  endfacet
  facet normal 0 -1 0
    outer loop
      vertex 83 60.81666564941406 10
      vertex 3 60.81666564941406 5
      vertex 83 60.81666564941406 5
    endloop
  endfacet
  facet normal 0 1 0
    outer loop
      vertex 83 57.18333435058594 5
      vertex 3 57.18333435058594 10
      vertex 83 57.18333435058594 10
    endloop
  endfacet
  facet normal 0 1 0
    outer loop
      vertex 3 57.18333435058594 10
      vertex 83 57.18333435058594 5
      vertex 3 57.18333435058594 5
    endloop
  endfacet
  facet normal -1 0 0
    outer loop
      vertex 83 62.516666412353516 5
      vertex 83 66.1500015258789 10
      vertex 83 66.1500015258789 5
    endloop
  endfacet
  facet normal -1 0 0
    outer loop
      vertex 83 66.1500015258789 10
      vertex 83 62.516666412353516 5
      vertex 83 62.516666412353516 10
    endloop
  endfacet
  facet normal 0 0 1
    outer loop
      vertex 3 66.1500015258789 5
      vertex 83 62.516666412353516 5
      vertex 83 66.1500015258789 5
    endloop
  endfacet
  facet normal 0 0 1
    outer loop
      vertex 83 62.516666412353516 5
      vertex 3 66.1500015258789 5
      vertex 3 62.516666412353516 5
    endloop
  endfacet
  facet normal 1 0 0
    outer loop
      vertex 3 62.516666412353516 10
      vertex 3 66.1500015258789 5
      vertex 3 66.1500015258789 10
    endloop
  endfacet
  facet normal 1 0 0
    outer loop
      vertex 3 66.1500015258789 5
      vertex 3 62.516666412353516 10
      vertex 3 62.516666412353516 5
    endloop
  endfacet
  facet normal 0 -1 0
    outer loop
      vertex 3 66.1500015258789 5
      vertex 83 66.1500015258789 10
      vertex 3 66.1500015258789 10
    endloop
  endfacet
  facet normal 0 -1 0
    outer loop
      vertex 83 66.1500015258789 10
      vertex 3 66.1500015258789 5
      vertex 83 66.1500015258789 5
    endloop
  endfacet
  facet normal 0 1 0
    outer loop
      vertex 83 62.516666412353516 5
      vertex 3 62.516666412353516 10
      vertex 83 62.516666412353516 10
    endloop
  endfacet
  facet normal 0 1 0
    outer loop
      vertex 3 62.516666412353516 10
      vertex 83 62.516666412353516 5
      vertex 3 62.516666412353516 5
    endloop
  endfacet
  facet normal -1 0 0
    outer loop
      vertex 83 67.8499984741211 5
      vertex 83 71.48332977294922 10
      vertex 83 71.48332977294922 5
    endloop
  endfacet
  facet normal -1 0 0
    outer loop
      vertex 83 71.48332977294922 10
      vertex 83 67.8499984741211 5
      vertex 83 67.8499984741211 10
    endloop
  endfacet
  facet normal 0 0 1
    outer loop
      vertex 3 71.48332977294922 5
      vertex 83 67.8499984741211 5
      vertex 83 71.48332977294922 5
    endloop
  endfacet
  facet normal 0 0 1
    outer loop
      vertex 83 67.8499984741211 5
      vertex 3 71.48332977294922 5
      vertex 3 67.8499984741211 5
    endloop
  endfacet
  facet normal 1 0 0
    outer loop
      vertex 3 67.8499984741211 10
      vertex 3 71.48332977294922 5
      vertex 3 71.48332977294922 10
    endloop
  endfacet
  facet normal 1 0 0
    outer loop
      vertex 3 71.48332977294922 5
      vertex 3 67.8499984741211 10
      vertex 3 67.8499984741211 5
    endloop
  endfacet
  facet normal 0 -1 0
    outer loop
      vertex 3 71.48332977294922 5
      vertex 83 71.48332977294922 10
      vertex 3 71.48332977294922 10
    endloop
  endfacet
  facet normal 0 -1 0
    outer loop
      vertex 83 71.48332977294922 10
      vertex 3 71.48332977294922 5
      vertex 83 71.48332977294922 5
    endloop
  endfacet
  facet normal 0 1 0
    outer loop
      vertex 83 67.8499984741211 5
      vertex 3 67.8499984741211 10
      vertex 83 67.8499984741211 10
    endloop
  endfacet
  facet normal 0 1 0
    outer loop
      vertex 3 67.8499984741211 10
      vertex 83 67.8499984741211 5
      vertex 3 67.8499984741211 5
    endloop
  endfacet
  facet normal -1 0 0
    outer loop
      vertex 83 73.18333435058594 5
      vertex 83 76.81666564941406 10
      vertex 83 76.81666564941406 5
    endloop
  endfacet
  facet normal -1 0 0
    outer loop
      vertex 83 76.81666564941406 10
      vertex 83 73.18333435058594 5
      vertex 83 73.18333435058594 10
    endloop
  endfacet
  facet normal 0 0 1
    outer loop
      vertex 3 76.81666564941406 5
      vertex 83 73.18333435058594 5
      vertex 83 76.81666564941406 5
    endloop
  endfacet
  facet normal 0 0 1
    outer loop
      vertex 83 73.18333435058594 5
      vertex 3 76.81666564941406 5
      vertex 3 73.18333435058594 5
    endloop
  endfacet
  facet normal 1 0 0
    outer loop
      vertex 3 73.18333435058594 10
      vertex 3 76.81666564941406 5
      vertex 3 76.81666564941406 10
    endloop
  endfacet
  facet normal 1 0 0
    outer loop
      vertex 3 76.81666564941406 5
      vertex 3 73.18333435058594 10
      vertex 3 73.18333435058594 5
    endloop
  endfacet
  facet normal 0 -1 0
    outer loop
      vertex 3 76.81666564941406 5
      vertex 83 76.81666564941406 10
      vertex 3 76.81666564941406 10
    endloop
  endfacet
  facet normal 0 -1 0
    outer loop
      vertex 83 76.81666564941406 10
      vertex 3 76.81666564941406 5
      vertex 83 76.81666564941406 5
    endloop
  endfacet
  facet normal 0 1 0
    outer loop
      vertex 83 73.18333435058594 5
      vertex 3 73.18333435058594 10
      vertex 83 73.18333435058594 10
    endloop
  endfacet
  facet normal 0 1 0
    outer loop
      vertex 3 73.18333435058594 10
      vertex 83 73.18333435058594 5
      vertex 3 73.18333435058594 5
    endloop
  endfacet
  facet normal -1 0 0
    outer loop
      vertex 83 78.51666259765625 5
      vertex 83 82.1500015258789 10
      vertex 83 82.1500015258789 5
    endloop
  endfacet
  facet normal -1 0 0
    outer loop
      vertex 83 82.1500015258789 10
      vertex 83 78.51666259765625 5
      vertex 83 78.51666259765625 10
    endloop
  endfacet
  facet normal 0 0 1
    outer loop
      vertex 3 82.1500015258789 5
      vertex 83 78.51666259765625 5
      vertex 83 82.1500015258789 5
    endloop
  endfacet
  facet normal 0 0 1
    outer loop
      vertex 83 78.51666259765625 5
      vertex 3 82.1500015258789 5
      vertex 3 78.51666259765625 5
    endloop
  endfacet
  facet normal 1 0 0
    outer loop
      vertex 3 78.51666259765625 10
      vertex 3 82.1500015258789 5
      vertex 3 82.1500015258789 10
    endloop
  endfacet
  facet normal 1 0 0
    outer loop
      vertex 3 82.1500015258789 5
      vertex 3 78.51666259765625 10
      vertex 3 78.51666259765625 5
    endloop
  endfacet
  facet normal 0 -1 0
    outer loop
      vertex 3 82.1500015258789 5
      vertex 83 82.1500015258789 10
      vertex 3 82.1500015258789 10
    endloop
  endfacet
  facet normal 0 -1 0
    outer loop
      vertex 83 82.1500015258789 10
      vertex 3 82.1500015258789 5
      vertex 83 82.1500015258789 5
    endloop
  endfacet
  facet normal 0 1 0
    outer loop
      vertex 83 78.51666259765625 5
      vertex 3 78.51666259765625 10
      vertex 83 78.51666259765625 10
    endloop
  endfacet
  facet normal 0 1 0
    outer loop
      vertex 3 78.51666259765625 10
      vertex 83 78.51666259765625 5
      vertex 3 78.51666259765625 5
    endloop
  endfacet
  facet normal 1 0 0
    outer loop
      vertex 86 0 10
      vertex 86 86 0
      vertex 86 86 10
    endloop
  endfacet
  facet normal 1 0 0
    outer loop
      vertex 86 86 0
      vertex 86 0 10
      vertex 86 0 0
    endloop
  endfacet
  facet normal 0 0 1
    outer loop
      vertex 3 9.183332443237305 10
      vertex 83 7.483332633972168 10
      vertex 83 9.183332443237305 10
    endloop
  endfacet
  facet normal 0 0 1
    outer loop
      vertex 83 7.483332633972168 10
      vertex 3 9.183332443237305 10
      vertex 3 7.483332633972168 10
    endloop
  endfacet
  facet normal 0 0 1
    outer loop
      vertex 3 14.516666412353516 10
      vertex 83 12.816666603088379 10
      vertex 83 14.516666412353516 10
    endloop
  endfacet
  facet normal 0 0 1
    outer loop
      vertex 83 12.816666603088379 10
      vertex 3 14.516666412353516 10
      vertex 3 12.816666603088379 10
    endloop
  endfacet
  facet normal 0 0 1
    outer loop
      vertex 3 19.849998474121094 10
      vertex 83 18.149999618530273 10
      vertex 83 19.849998474121094 10
    endloop
  endfacet
  facet normal 0 0 1
    outer loop
      vertex 83 18.149999618530273 10
      vertex 3 19.849998474121094 10
      vertex 3 18.149999618530273 10
    endloop
  endfacet
  facet normal 0 0 1
    outer loop
      vertex 3 25.183332443237305 10
      vertex 83 23.483333587646484 10
      vertex 83 25.183332443237305 10
    endloop
  endfacet
  facet normal 0 0 1
    outer loop
      vertex 83 23.483333587646484 10
      vertex 3 25.183332443237305 10
      vertex 3 23.483333587646484 10
    endloop
  endfacet
  facet normal 0 0 1
    outer loop
      vertex 3 30.516666412353516 10
      vertex 83 28.816665649414062 10
      vertex 83 30.516666412353516 10
    endloop
  endfacet
  facet normal 0 0 1
    outer loop
      vertex 83 28.816665649414062 10
      vertex 3 30.516666412353516 10
      vertex 3 28.816665649414062 10
    endloop
  endfacet
  facet normal 0 0 1
    outer loop
      vertex 3 35.849998474121094 10
      vertex 83 34.150001525878906 10
      vertex 83 35.849998474121094 10
    endloop
  endfacet
  facet normal 0 0 1
    outer loop
      vertex 83 34.150001525878906 10
      vertex 3 35.849998474121094 10
      vertex 3 34.150001525878906 10
    endloop
  endfacet
  facet normal 0 0 1
    outer loop
      vertex 3 41.18333435058594 10
      vertex 83 39.483333587646484 10
      vertex 83 41.18333435058594 10
    endloop
  endfacet
  facet normal 0 0 1
    outer loop
      vertex 83 39.483333587646484 10
      vertex 3 41.18333435058594 10
      vertex 3 39.483333587646484 10
    endloop
  endfacet
  facet normal 0 0 1
    outer loop
      vertex 3 46.516666412353516 10
      vertex 83 44.81666564941406 10
      vertex 83 46.516666412353516 10
    endloop
  endfacet
  facet normal 0 0 1
    outer loop
      vertex 83 44.81666564941406 10
      vertex 3 46.516666412353516 10
      vertex 3 44.81666564941406 10
    endloop
  endfacet
  facet normal 0 0 1
    outer loop
      vertex 3 51.849998474121094 10
      vertex 83 50.150001525878906 10
      vertex 83 51.849998474121094 10
    endloop
  endfacet
  facet normal 0 0 1
    outer loop
      vertex 83 50.150001525878906 10
      vertex 3 51.849998474121094 10
      vertex 3 50.150001525878906 10
    endloop
  endfacet
  facet normal 0 0 1
    outer loop
      vertex 3 57.18333435058594 10
      vertex 83 55.483333587646484 10
      vertex 83 57.18333435058594 10
    endloop
  endfacet
  facet normal 0 0 1
    outer loop
      vertex 83 55.483333587646484 10
      vertex 3 57.18333435058594 10
      vertex 3 55.483333587646484 10
    endloop
  endfacet
  facet normal 0 0 1
    outer loop
      vertex 3 62.516666412353516 10
      vertex 83 60.81666564941406 10
      vertex 83 62.516666412353516 10
    endloop
  endfacet
  facet normal 0 0 1
    outer loop
      vertex 83 60.81666564941406 10
      vertex 3 62.516666412353516 10
      vertex 3 60.81666564941406 10
    endloop
  endfacet
  facet normal 0 0 1
    outer loop
      vertex 3 67.8499984741211 10
      vertex 83 66.1500015258789 10
      vertex 83 67.8499984741211 10
    endloop
  endfacet
  facet normal 0 0 1
    outer loop
      vertex 83 66.1500015258789 10
      vertex 3 67.8499984741211 10
      vertex 3 66.1500015258789 10
    endloop
  endfacet
  facet normal 0 0 1
    outer loop
      vertex 3 73.18333435058594 10
      vertex 83 71.48332977294922 10
      vertex 83 73.18333435058594 10
    endloop
  endfacet
  facet normal 0 0 1
    outer loop
      vertex 83 71.48332977294922 10
      vertex 3 73.18333435058594 10
      vertex 3 71.48332977294922 10
    endloop
  endfacet
  facet normal 0 0 1
    outer loop
      vertex 3 78.51666259765625 10
      vertex 83 76.81666564941406 10
      vertex 83 78.51666259765625 10
    endloop
  endfacet
  facet normal 0 0 1
    outer loop
      vertex 83 76.81666564941406 10
      vertex 3 78.51666259765625 10
      vertex 3 76.81666564941406 10
    endloop
  endfacet
  facet normal 0 0 1
    outer loop
      vertex 83 78.51666259765625 10
      vertex 86 86 10
      vertex 83 82.1500015258789 10
    endloop
  endfacet
  facet normal 0 0 1
    outer loop
      vertex 86 86 10
      vertex 3 82.1500015258789 10
      vertex 83 82.1500015258789 10
    endloop
  endfacet
  facet normal 0 0 1
    outer loop
      vertex 0 86 10
      vertex 3 78.51666259765625 10
      vertex 3 82.1500015258789 10
    endloop
  endfacet
  facet normal 0 0 1
    outer loop
      vertex 3 78.51666259765625 10
      vertex 0 86 10
      vertex 3 76.81666564941406 10
    endloop
  endfacet
  facet normal 0 0 1
    outer loop
      vertex 3 76.81666564941406 10
      vertex 0 86 10
      vertex 3 73.18333435058594 10
    endloop
  endfacet
  facet normal 0 0 1
    outer loop
      vertex 3 73.18333435058594 10
      vertex 0 86 10
      vertex 3 71.48332977294922 10
    endloop
  endfacet
  facet normal 0 0 1
    outer loop
      vertex 3 71.48332977294922 10
      vertex 0 86 10
      vertex 3 67.8499984741211 10
    endloop
  endfacet
  facet normal 0 0 1
    outer loop
      vertex 3 67.8499984741211 10
      vertex 0 86 10
      vertex 3 66.1500015258789 10
    endloop
  endfacet
  facet normal 0 0 1
    outer loop
      vertex 3 66.1500015258789 10
      vertex 0 86 10
      vertex 3 62.516666412353516 10
    endloop
  endfacet
  facet normal 0 0 1
    outer loop
      vertex 3 62.516666412353516 10
      vertex 0 86 10
      vertex 3 60.81666564941406 10
    endloop
  endfacet
  facet normal 0 0 1
    outer loop
      vertex 3 60.81666564941406 10
      vertex 0 86 10
      vertex 3 57.18333435058594 10
    endloop
  endfacet
  facet normal 0 0 1
    outer loop
      vertex 3 57.18333435058594 10
      vertex 0 86 10
      vertex 3 55.483333587646484 10
    endloop
  endfacet
  facet normal 0 0 1
    outer loop
      vertex 3 55.483333587646484 10
      vertex 0 86 10
      vertex 3 51.849998474121094 10
    endloop
  endfacet
  facet normal 0 0 1
    outer loop
      vertex 3 51.849998474121094 10
      vertex 0 86 10
      vertex 3 50.150001525878906 10
    endloop
  endfacet
  facet normal 0 0 1
    outer loop
      vertex 3 50.150001525878906 10
      vertex 0 86 10
      vertex 3 46.516666412353516 10
    endloop
  endfacet
  facet normal 0 0 1
    outer loop
      vertex 3 46.516666412353516 10
      vertex 0 86 10
      vertex 3 44.81666564941406 10
    endloop
  endfacet
  facet normal 0 0 1
    outer loop
      vertex 3 44.81666564941406 10
      vertex 0 86 10
      vertex 3 41.18333435058594 10
    endloop
  endfacet
  facet normal 0 0 1
    outer loop
      vertex 3 41.18333435058594 10
      vertex 0 86 10
      vertex 3 39.483333587646484 10
    endloop
  endfacet
  facet normal 0 0 1
    outer loop
      vertex 0 0 10
      vertex 3 39.483333587646484 10
      vertex 0 86 10
    endloop
  endfacet
  facet normal 0 0 1
    outer loop
      vertex 3 39.483333587646484 10
      vertex 0 0 10
      vertex 3 35.849998474121094 10
    endloop
  endfacet
  facet normal 0 0 1
    outer loop
      vertex 3 35.849998474121094 10
      vertex 0 0 10
      vertex 3 34.150001525878906 10
    endloop
  endfacet
  facet normal 0 0 1
    outer loop
      vertex 3 34.150001525878906 10
      vertex 0 0 10
      vertex 3 30.516666412353516 10
    endloop
  endfacet
  facet normal 0 0 1
    outer loop
      vertex 3 30.516666412353516 10
      vertex 0 0 10
      vertex 3 28.816665649414062 10
    endloop
  endfacet
  facet normal 0 0 1
    outer loop
      vertex 3 28.816665649414062 10
      vertex 0 0 10
      vertex 3 25.183332443237305 10
    endloop
  endfacet
  facet normal 0 0 1
    outer loop
      vertex 3 25.183332443237305 10
      vertex 0 0 10
      vertex 3 23.483333587646484 10
    endloop
  endfacet
  facet normal 0 0 1
    outer loop
      vertex 3 23.483333587646484 10
      vertex 0 0 10
      vertex 3 19.849998474121094 10
    endloop
  endfacet
  facet normal 0 0 1
    outer loop
      vertex 3 19.849998474121094 10
      vertex 0 0 10
      vertex 3 18.149999618530273 10
    endloop
  endfacet
  facet normal 0 0 1
    outer loop
      vertex 3 18.149999618530273 10
      vertex 0 0 10
      vertex 3 14.516666412353516 10
    endloop
  endfacet
  facet normal 0 0 1
    outer loop
      vertex 3 14.516666412353516 10
      vertex 0 0 10
      vertex 3 12.816666603088379 10
    endloop
  endfacet
  facet normal 0 0 1
    outer loop
      vertex 3 12.816666603088379 10
      vertex 0 0 10
      vertex 3 9.183332443237305 10
    endloop
  endfacet
  facet normal 0 0 1
    outer loop
      vertex 3 9.183332443237305 10
      vertex 0 0 10
      vertex 3 7.483332633972168 10
    endloop
  endfacet
  facet normal 0 0 1
    outer loop
      vertex 0 86 10
      vertex 3 82.1500015258789 10
      vertex 86 86 10
    endloop
  endfacet
  facet normal 0 0 1
    outer loop
      vertex 83 76.81666564941406 10
      vertex 86 86 10
      vertex 83 78.51666259765625 10
    endloop
  endfacet
  facet normal 0 0 1
    outer loop
      vertex 83 73.18333435058594 10
      vertex 86 86 10
      vertex 83 76.81666564941406 10
    endloop
  endfacet
  facet normal 0 0 1
    outer loop
      vertex 83 71.48332977294922 10
      vertex 86 86 10
      vertex 83 73.18333435058594 10
    endloop
  endfacet
  facet normal 0 0 1
    outer loop
      vertex 83 67.8499984741211 10
      vertex 86 86 10
      vertex 83 71.48332977294922 10
    endloop
  endfacet
  facet normal 0 0 1
    outer loop
      vertex 83 66.1500015258789 10
      vertex 86 86 10
      vertex 83 67.8499984741211 10
    endloop
  endfacet
  facet normal 0 0 1
    outer loop
      vertex 83 62.516666412353516 10
      vertex 86 86 10
      vertex 83 66.1500015258789 10
    endloop
  endfacet
  facet normal 0 0 1
    outer loop
      vertex 83 60.81666564941406 10
      vertex 86 86 10
      vertex 83 62.516666412353516 10
    endloop
  endfacet
  facet normal 0 0 1
    outer loop
      vertex 83 57.18333435058594 10
      vertex 86 86 10
      vertex 83 60.81666564941406 10
    endloop
  endfacet
  facet normal 0 0 1
    outer loop
      vertex 83 55.483333587646484 10
      vertex 86 86 10
      vertex 83 57.18333435058594 10
    endloop
  endfacet
  facet normal 0 0 1
    outer loop
      vertex 83 51.849998474121094 10
      vertex 86 86 10
      vertex 83 55.483333587646484 10
    endloop
  endfacet
  facet normal 0 0 1
    outer loop
      vertex 83 50.150001525878906 10
      vertex 86 86 10
      vertex 83 51.849998474121094 10
    endloop
  endfacet
  facet normal 0 0 1
    outer loop
      vertex 83 46.516666412353516 10
      vertex 86 86 10
      vertex 83 50.150001525878906 10
    endloop
  endfacet
  facet normal 0 0 1
    outer loop
      vertex 86 86 10
      vertex 83 46.516666412353516 10
      vertex 86 0 10
    endloop
  endfacet
  facet normal 0 0 1
    outer loop
      vertex 83 44.81666564941406 10
      vertex 86 0 10
      vertex 83 46.516666412353516 10
    endloop
  endfacet
  facet normal 0 0 1
    outer loop
      vertex 83 41.18333435058594 10
      vertex 86 0 10
      vertex 83 44.81666564941406 10
    endloop
  endfacet
  facet normal 0 0 1
    outer loop
      vertex 83 39.483333587646484 10
      vertex 86 0 10
      vertex 83 41.18333435058594 10
    endloop
  endfacet
  facet normal 0 0 1
    outer loop
      vertex 83 35.849998474121094 10
      vertex 86 0 10
      vertex 83 39.483333587646484 10
    endloop
  endfacet
  facet normal 0 0 1
    outer loop
      vertex 83 34.150001525878906 10
      vertex 86 0 10
      vertex 83 35.849998474121094 10
    endloop
  endfacet
  facet normal 0 0 1
    outer loop
      vertex 83 30.516666412353516 10
      vertex 86 0 10
      vertex 83 34.150001525878906 10
    endloop
  endfacet
  facet normal 0 0 1
    outer loop
      vertex 83 28.816665649414062 10
      vertex 86 0 10
      vertex 83 30.516666412353516 10
    endloop
  endfacet
  facet normal 0 0 1
    outer loop
      vertex 83 25.183332443237305 10
      vertex 86 0 10
      vertex 83 28.816665649414062 10
    endloop
  endfacet
  facet normal 0 0 1
    outer loop
      vertex 83 23.483333587646484 10
      vertex 86 0 10
      vertex 83 25.183332443237305 10
    endloop
  endfacet
  facet normal 0 0 1
    outer loop
      vertex 83 19.849998474121094 10
      vertex 86 0 10
      vertex 83 23.483333587646484 10
    endloop
  endfacet
  facet normal 0 0 1
    outer loop
      vertex 83 18.149999618530273 10
      vertex 86 0 10
      vertex 83 19.849998474121094 10
    endloop
  endfacet
  facet normal 0 0 1
    outer loop
      vertex 83 14.516666412353516 10
      vertex 86 0 10
      vertex 83 18.149999618530273 10
    endloop
  endfacet
  facet normal 0 0 1
    outer loop
      vertex 83 12.816666603088379 10
      vertex 86 0 10
      vertex 83 14.516666412353516 10
    endloop
  endfacet
  facet normal 0 0 1
    outer loop
      vertex 83 9.183332443237305 10
      vertex 86 0 10
      vertex 83 12.816666603088379 10
    endloop
  endfacet
  facet normal 0 0 1
    outer loop
      vertex 83 7.483332633972168 10
      vertex 86 0 10
      vertex 83 9.183332443237305 10
    endloop
  endfacet
  facet normal 0 0 1
    outer loop
      vertex 83 3.84999942779541 10
      vertex 86 0 10
      vertex 83 7.483332633972168 10
    endloop
  endfacet
  facet normal 0 0 1
    outer loop
      vertex 3 3.84999942779541 10
      vertex 86 0 10
      vertex 83 3.84999942779541 10
    endloop
  endfacet
  facet normal 0 0 1
    outer loop
      vertex 3 3.84999942779541 10
      vertex 0 0 10
      vertex 86 0 10
    endloop
  endfacet
  facet normal 0 0 1
    outer loop
      vertex 3 7.483332633972168 10
      vertex 0 0 10
      vertex 3 3.84999942779541 10
    endloop
  endfacet
  facet normal 0 0 -1
    outer loop
      vertex 0 0 0
      vertex 86 86 0
      vertex 86 0 0
    endloop
  endfacet
  facet normal 0 0 -1
    outer loop
      vertex 86 86 0
      vertex 0 0 0
      vertex 0 86 0
    endloop
  endfacet
  facet normal -1 0 0
    outer loop
      vertex 0 0 0
      vertex 0 86 10
      vertex 0 86 0
    endloop
  endfacet
  facet normal -1 0 0
    outer loop
      vertex 0 86 10
      vertex 0 0 0
      vertex 0 0 10
    endloop
  endfacet
  facet normal 0 1 0
    outer loop
      vertex 86 86 0
      vertex 0 86 10
      vertex 86 86 10
    endloop
  endfacet
  facet normal 0 1 0
    outer loop
      vertex 0 86 10
      vertex 86 86 0
      vertex 0 86 0
    endloop
  endfacet
  facet normal 0 -1 0
    outer loop
      vertex 0 0 0
      vertex 86 0 10
      vertex 0 0 10
    endloop
  endfacet
  facet normal 0 -1 0
    outer loop
      vertex 86 0 10
      vertex 0 0 0
      vertex 86 0 0
    endloop
  endfacet
endsolid OpenSCAD_Model
