solid OpenSCAD_Model
  facet normal -1 0 0
    outer loop
      vertex 83.19999694824219 4.299999237060547 5
      vertex 83.19999694824219 8.972726821899414 15
      vertex 83.19999694824219 8.972726821899414 5
    endloop
  endfacet
  facet normal -1 0 0
    outer loop
      vertex 83.19999694824219 8.972726821899414 15
      vertex 83.19999694824219 4.299999237060547 5
      vertex 83.19999694824219 4.299999237060547 15
    endloop
  endfacet
  facet normal 0 0 1
    outer loop
      vertex 2.799999237060547 8.972726821899414 5
      vertex 83.19999694824219 4.299999237060547 5
      vertex 83.19999694824219 8.972726821899414 5
    endloop
  endfacet
  facet normal 0 0 1
    outer loop
      vertex 83.19999694824219 4.299999237060547 5
      vertex 2.799999237060547 8.972726821899414 5
      vertex 2.799999237060547 4.299999237060547 5
    endloop
  endfacet
  facet normal 1 0 0
    outer loop
      vertex 2.799999237060547 4.299999237060547 15
      vertex 2.799999237060547 8.972726821899414 5
      vertex 2.799999237060547 8.972726821899414 15
    endloop
  endfacet
  facet normal 1 0 0
    outer loop
      vertex 2.799999237060547 8.972726821899414 5
      vertex 2.799999237060547 4.299999237060547 15
      vertex 2.799999237060547 4.299999237060547 5
    endloop
  endfacet
  facet normal 0 -1 0
    outer loop
      vertex 2.799999237060547 8.972726821899414 5
      vertex 83.19999694824219 8.972726821899414 15
      vertex 2.799999237060547 8.972726821899414 15
    endloop
  endfacet
  facet normal 0 -1 0
    outer loop
      vertex 83.19999694824219 8.972726821899414 15
      vertex 2.799999237060547 8.972726821899414 5
      vertex 83.19999694824219 8.972726821899414 5
    endloop
  endfacet
  facet normal 0 1 0
    outer loop
      vertex 83.19999694824219 4.299999237060547 5
      vertex 2.799999237060547 4.299999237060547 15
      vertex 83.19999694824219 4.299999237060547 15
    endloop
  endfacet
  facet normal 0 1 0
    outer loop
      vertex 2.799999237060547 4.299999237060547 15
      vertex 83.19999694824219 4.299999237060547 5
      vertex 2.799999237060547 4.299999237060547 5
    endloop
  endfacet
  facet normal -1 0 0
    outer loop
      vertex 83.19999694824219 11.57272720336914 5
      vertex 83.19999694824219 16.245452880859375 15
      vertex 83.19999694824219 16.245452880859375 5
    endloop
  endfacet
  facet normal -1 0 0
    outer loop
      vertex 83.19999694824219 16.245452880859375 15
      vertex 83.19999694824219 11.57272720336914 5
      vertex 83.19999694824219 11.57272720336914 15
    endloop
  endfacet
  facet normal 0 0 1
    outer loop
      vertex 2.799999237060547 16.245452880859375 5
      vertex 83.19999694824219 11.57272720336914 5
      vertex 83.19999694824219 16.245452880859375 5
    endloop
  endfacet
  facet normal 0 0 1
    outer loop
      vertex 83.19999694824219 11.57272720336914 5
      vertex 2.799999237060547 16.245452880859375 5
      vertex 2.799999237060547 11.57272720336914 5
    endloop
  endfacet
  facet normal 1 0 0
    outer loop
      vertex 2.799999237060547 11.57272720336914 15
      vertex 2.799999237060547 16.245452880859375 5
      vertex 2.799999237060547 16.245452880859375 15
    endloop
  endfacet
  facet normal 1 0 0
    outer loop
      vertex 2.799999237060547 16.245452880859375 5
      vertex 2.799999237060547 11.57272720336914 15
      vertex 2.799999237060547 11.57272720336914 5
    endloop
  endfacet
  facet normal 0 -1 0
    outer loop
      vertex 2.799999237060547 16.245452880859375 5
      vertex 83.19999694824219 16.245452880859375 15
      vertex 2.799999237060547 16.245452880859375 15
    endloop
  endfacet
  facet normal 0 -1 0
    outer loop
      vertex 83.19999694824219 16.245452880859375 15
      vertex 2.799999237060547 16.245452880859375 5
      vertex 83.19999694824219 16.245452880859375 5
    endloop
  endfacet
  facet normal 0 1 0
    outer loop
      vertex 83.19999694824219 11.57272720336914 5
      vertex 2.799999237060547 11.57272720336914 15
      vertex 83.19999694824219 11.57272720336914 15
    endloop
  endfacet
  facet normal 0 1 0
    outer loop
      vertex 2.799999237060547 11.57272720336914 15
      vertex 83.19999694824219 11.57272720336914 5
      vertex 2.799999237060547 11.57272720336914 5
    endloop
  endfacet
  facet normal -1 0 0
    outer loop
      vertex 83.19999694824219 18.845455169677734 5
      vertex 83.19999694824219 23.51818084716797 15
      vertex 83.19999694824219 23.51818084716797 5
    endloop
  endfacet
  facet normal -1 0 0
    outer loop
      vertex 83.19999694824219 23.51818084716797 15
      vertex 83.19999694824219 18.845455169677734 5
      vertex 83.19999694824219 18.845455169677734 15
    endloop
  endfacet
  facet normal 0 0 1
    outer loop
      vertex 2.799999237060547 23.51818084716797 5
      vertex 83.19999694824219 18.845455169677734 5
      vertex 83.19999694824219 23.51818084716797 5
    endloop
  endfacet
  facet normal 0 0 1
    outer loop
      vertex 83.19999694824219 18.845455169677734 5
      vertex 2.799999237060547 23.51818084716797 5
      vertex 2.799999237060547 18.845455169677734 5
    endloop
  endfacet
  facet normal 1 0 0
    outer loop
      vertex 2.799999237060547 18.845455169677734 15
      vertex 2.799999237060547 23.51818084716797 5
      vertex 2.799999237060547 23.51818084716797 15
    endloop
  endfacet
  facet normal 1 0 0
    outer loop
      vertex 2.799999237060547 23.51818084716797 5
      vertex 2.799999237060547 18.845455169677734 15
      vertex 2.799999237060547 18.845455169677734 5
    endloop
  endfacet
  facet normal 0 -1 0
    outer loop
      vertex 2.799999237060547 23.51818084716797 5
      vertex 83.19999694824219 23.51818084716797 15
      vertex 2.799999237060547 23.51818084716797 15
    endloop
  endfacet
  facet normal 0 -1 0
    outer loop
      vertex 83.19999694824219 23.51818084716797 15
      vertex 2.799999237060547 23.51818084716797 5
      vertex 83.19999694824219 23.51818084716797 5
    endloop
  endfacet
  facet normal 0 1 0
    outer loop
      vertex 83.19999694824219 18.845455169677734 5
      vertex 2.799999237060547 18.845455169677734 15
      vertex 83.19999694824219 18.845455169677734 15
    endloop
  endfacet
  facet normal 0 1 0
    outer loop
      vertex 2.799999237060547 18.845455169677734 15
      vertex 83.19999694824219 18.845455169677734 5
      vertex 2.799999237060547 18.845455169677734 5
    endloop
  endfacet
  facet normal -1 0 0
    outer loop
      vertex 83.19999694824219 26.118181228637695 5
      vertex 83.19999694824219 30.790908813476562 15
      vertex 83.19999694824219 30.790908813476562 5
    endloop
  endfacet
  facet normal -1 0 0
    outer loop
      vertex 83.19999694824219 30.790908813476562 15
      vertex 83.19999694824219 26.118181228637695 5
      vertex 83.19999694824219 26.118181228637695 15
    endloop
  endfacet
  facet normal 0 0 1
    outer loop
      vertex 2.799999237060547 30.790908813476562 5
      vertex 83.19999694824219 26.118181228637695 5
      vertex 83.19999694824219 30.790908813476562 5
    endloop
  endfacet
  facet normal 0 0 1
    outer loop
      vertex 83.19999694824219 26.118181228637695 5
      vertex 2.799999237060547 30.790908813476562 5
      vertex 2.799999237060547 26.118181228637695 5
    endloop
  endfacet
  facet normal 1 0 0
    outer loop
      vertex 2.799999237060547 26.118181228637695 15
      vertex 2.799999237060547 30.790908813476562 5
      vertex 2.799999237060547 30.790908813476562 15
    endloop
  endfacet
  facet normal 1 0 0
    outer loop
      vertex 2.799999237060547 30.790908813476562 5
      vertex 2.799999237060547 26.118181228637695 15
      vertex 2.799999237060547 26.118181228637695 5
    endloop
  endfacet
  facet normal 0 -1 0
    outer loop
      vertex 2.799999237060547 30.790908813476562 5
      vertex 83.19999694824219 30.790908813476562 15
      vertex 2.799999237060547 30.790908813476562 15
    endloop
  endfacet
  facet normal 0 -1 0
    outer loop
      vertex 83.19999694824219 30.790908813476562 15
      vertex 2.799999237060547 30.790908813476562 5
      vertex 83.19999694824219 30.790908813476562 5
    endloop
  endfacet
  facet normal 0 1 0
    outer loop
      vertex 83.19999694824219 26.118181228637695 5
      vertex 2.799999237060547 26.118181228637695 15
      vertex 83.19999694824219 26.118181228637695 15
    endloop
  endfacet
  facet normal 0 1 0
    outer loop
      vertex 2.799999237060547 26.118181228637695 15
      vertex 83.19999694824219 26.118181228637695 5
      vertex 2.799999237060547 26.118181228637695 5
    endloop
  endfacet
  facet normal -1 0 0
    outer loop
      vertex 83.19999694824219 33.390907287597656 5
      vertex 83.19999694824219 38.063636779785156 15
      vertex 83.19999694824219 38.063636779785156 5
    endloop
  endfacet
  facet normal -1 0 0
    outer loop
      vertex 83.19999694824219 38.063636779785156 15
      vertex 83.19999694824219 33.390907287597656 5
      vertex 83.19999694824219 33.390907287597656 15
    endloop
  endfacet
  facet normal 0 0 1
    outer loop
      vertex 2.799999237060547 38.063636779785156 5
      vertex 83.19999694824219 33.390907287597656 5
      vertex 83.19999694824219 38.063636779785156 5
    endloop
  endfacet
  facet normal 0 0 1
    outer loop
      vertex 83.19999694824219 33.390907287597656 5
      vertex 2.799999237060547 38.063636779785156 5
      vertex 2.799999237060547 33.390907287597656 5
    endloop
  endfacet
  facet normal 1 0 0
    outer loop
      vertex 2.799999237060547 33.390907287597656 15
      vertex 2.799999237060547 38.063636779785156 5
      vertex 2.799999237060547 38.063636779785156 15
    endloop
  endfacet
  facet normal 1 0 0
    outer loop
      vertex 2.799999237060547 38.063636779785156 5
      vertex 2.799999237060547 33.390907287597656 15
      vertex 2.799999237060547 33.390907287597656 5
    endloop
  endfacet
  facet normal 0 -1 0
    outer loop
      vertex 2.799999237060547 38.063636779785156 5
      vertex 83.19999694824219 38.063636779785156 15
      vertex 2.799999237060547 38.063636779785156 15
    endloop
  endfacet
  facet normal 0 -1 0
    outer loop
      vertex 83.19999694824219 38.063636779785156 15
      vertex 2.799999237060547 38.063636779785156 5
      vertex 83.19999694824219 38.063636779785156 5
    endloop
  endfacet
  facet normal 0 1 0
    outer loop
      vertex 83.19999694824219 33.390907287597656 5
      vertex 2.799999237060547 33.390907287597656 15
      vertex 83.19999694824219 33.390907287597656 15
    endloop
  endfacet
  facet normal 0 1 0
    outer loop
      vertex 2.799999237060547 33.390907287597656 15
      vertex 83.19999694824219 33.390907287597656 5
      vertex 2.799999237060547 33.390907287597656 5
    endloop
  endfacet
  facet normal -1 0 0
    outer loop
      vertex 83.19999694824219 40.66363525390625 5
      vertex 83.19999694824219 45.33636474609375 15
      vertex 83.19999694824219 45.33636474609375 5
    endloop
  endfacet
  facet normal -1 0 0
    outer loop
      vertex 83.19999694824219 45.33636474609375 15
      vertex 83.19999694824219 40.66363525390625 5
      vertex 83.19999694824219 40.66363525390625 15
    endloop
  endfacet
  facet normal 0 0 1
    outer loop
      vertex 2.799999237060547 45.33636474609375 5
      vertex 83.19999694824219 40.66363525390625 5
      vertex 83.19999694824219 45.33636474609375 5
    endloop
  endfacet
  facet normal 0 0 1
    outer loop
      vertex 83.19999694824219 40.66363525390625 5
      vertex 2.799999237060547 45.33636474609375 5
      vertex 2.799999237060547 40.66363525390625 5
    endloop
  endfacet
  facet normal 1 0 0
    outer loop
      vertex 2.799999237060547 40.66363525390625 15
      vertex 2.799999237060547 45.33636474609375 5
      vertex 2.799999237060547 45.33636474609375 15
    endloop
  endfacet
  facet normal 1 0 0
    outer loop
      vertex 2.799999237060547 45.33636474609375 5
      vertex 2.799999237060547 40.66363525390625 15
      vertex 2.799999237060547 40.66363525390625 5
    endloop
  endfacet
  facet normal 0 -1 0
    outer loop
      vertex 2.799999237060547 45.33636474609375 5
      vertex 83.19999694824219 45.33636474609375 15
      vertex 2.799999237060547 45.33636474609375 15
    endloop
  endfacet
  facet normal 0 -1 0
    outer loop
      vertex 83.19999694824219 45.33636474609375 15
      vertex 2.799999237060547 45.33636474609375 5
      vertex 83.19999694824219 45.33636474609375 5
    endloop
  endfacet
  facet normal 0 1 0
    outer loop
      vertex 83.19999694824219 40.66363525390625 5
      vertex 2.799999237060547 40.66363525390625 15
      vertex 83.19999694824219 40.66363525390625 15
    endloop
  endfacet
  facet normal 0 1 0
    outer loop
      vertex 2.799999237060547 40.66363525390625 15
      vertex 83.19999694824219 40.66363525390625 5
      vertex 2.799999237060547 40.66363525390625 5
    endloop
  endfacet
  facet normal -1 0 0
    outer loop
      vertex 83.19999694824219 47.936363220214844 5
      vertex 83.19999694824219 52.609092712402344 15
      vertex 83.19999694824219 52.609092712402344 5
    endloop
  endfacet
  facet normal -1 0 0
    outer loop
      vertex 83.19999694824219 52.609092712402344 15
      vertex 83.19999694824219 47.936363220214844 5
      vertex 83.19999694824219 47.936363220214844 15
    endloop
  endfacet
  facet normal 0 0 1
    outer loop
      vertex 2.799999237060547 52.609092712402344 5
      vertex 83.19999694824219 47.936363220214844 5
      vertex 83.19999694824219 52.609092712402344 5
    endloop
  endfacet
  facet normal 0 0 1
    outer loop
      vertex 83.19999694824219 47.936363220214844 5
      vertex 2.799999237060547 52.609092712402344 5
      vertex 2.799999237060547 47.936363220214844 5
    endloop
  endfacet
  facet normal 1 0 0
    outer loop
      vertex 2.799999237060547 47.936363220214844 15
      vertex 2.799999237060547 52.609092712402344 5
      vertex 2.799999237060547 52.609092712402344 15
    endloop
  endfacet
  facet normal 1 0 0
    outer loop
      vertex 2.799999237060547 52.609092712402344 5
      vertex 2.799999237060547 47.936363220214844 15
      vertex 2.799999237060547 47.936363220214844 5
    endloop
  endfacet
  facet normal 0 -1 0
    outer loop
      vertex 2.799999237060547 52.609092712402344 5
      vertex 83.19999694824219 52.609092712402344 15
      vertex 2.799999237060547 52.609092712402344 15
    endloop
  endfacet
  facet normal 0 -1 0
    outer loop
      vertex 83.19999694824219 52.609092712402344 15
      vertex 2.799999237060547 52.609092712402344 5
      vertex 83.19999694824219 52.609092712402344 5
    endloop
  endfacet
  facet normal 0 1 0
    outer loop
      vertex 83.19999694824219 47.936363220214844 5
      vertex 2.799999237060547 47.936363220214844 15
      vertex 83.19999694824219 47.936363220214844 15
    endloop
  endfacet
  facet normal 0 1 0
    outer loop
      vertex 2.799999237060547 47.936363220214844 15
      vertex 83.19999694824219 47.936363220214844 5
      vertex 2.799999237060547 47.936363220214844 5
    endloop
  endfacet
  facet normal -1 0 0
    outer loop
      vertex 83.19999694824219 55.20909118652344 5
      vertex 83.19999694824219 59.88181686401367 15
      vertex 83.19999694824219 59.88181686401367 5
    endloop
  endfacet
  facet normal -1 0 0
    outer loop
      vertex 83.19999694824219 59.88181686401367 15
      vertex 83.19999694824219 55.20909118652344 5
      vertex 83.19999694824219 55.20909118652344 15
    endloop
  endfacet
  facet normal 0 0 1
    outer loop
      vertex 2.799999237060547 59.88181686401367 5
      vertex 83.19999694824219 55.20909118652344 5
      vertex 83.19999694824219 59.88181686401367 5
    endloop
  endfacet
  facet normal 0 0 1
    outer loop
      vertex 83.19999694824219 55.20909118652344 5
      vertex 2.799999237060547 59.88181686401367 5
      vertex 2.799999237060547 55.20909118652344 5
    endloop
  endfacet
  facet normal 1 0 0
    outer loop
      vertex 2.799999237060547 55.20909118652344 15
      vertex 2.799999237060547 59.88181686401367 5
      vertex 2.799999237060547 59.88181686401367 15
    endloop
  endfacet
  facet normal 1 0 0
    outer loop
      vertex 2.799999237060547 59.88181686401367 5
      vertex 2.799999237060547 55.20909118652344 15
      vertex 2.799999237060547 55.20909118652344 5
    endloop
  endfacet
  facet normal 0 -1 0
    outer loop
      vertex 2.799999237060547 59.88181686401367 5
      vertex 83.19999694824219 59.88181686401367 15
      vertex 2.799999237060547 59.88181686401367 15
    endloop
  endfacet
  facet normal 0 -1 0
    outer loop
      vertex 83.19999694824219 59.88181686401367 15
      vertex 2.799999237060547 59.88181686401367 5
      vertex 83.19999694824219 59.88181686401367 5
    endloop
  endfacet
  facet normal 0 1 0
    outer loop
      vertex 83.19999694824219 55.20909118652344 5
      vertex 2.799999237060547 55.20909118652344 15
      vertex 83.19999694824219 55.20909118652344 15
    endloop
  endfacet
  facet normal 0 1 0
    outer loop
      vertex 2.799999237060547 55.20909118652344 15
      vertex 83.19999694824219 55.20909118652344 5
      vertex 2.799999237060547 55.20909118652344 5
    endloop
  endfacet
  facet normal -1 0 0
    outer loop
      vertex 83.19999694824219 62.48181915283203 5
      vertex 83.19999694824219 67.154541015625 15
      vertex 83.19999694824219 67.154541015625 5
    endloop
  endfacet
  facet normal -1 0 0
    outer loop
      vertex 83.19999694824219 67.154541015625 15
      vertex 83.19999694824219 62.48181915283203 5
      vertex 83.19999694824219 62.48181915283203 15
    endloop
  endfacet
  facet normal 0 0 1
    outer loop
      vertex 2.799999237060547 67.154541015625 5
      vertex 83.19999694824219 62.48181915283203 5
      vertex 83.19999694824219 67.154541015625 5
    endloop
  endfacet
  facet normal 0 0 1
    outer loop
      vertex 83.19999694824219 62.48181915283203 5
      vertex 2.799999237060547 67.154541015625 5
      vertex 2.799999237060547 62.48181915283203 5
    endloop
  endfacet
  facet normal 1 0 0
    outer loop
      vertex 2.799999237060547 62.48181915283203 15
      vertex 2.799999237060547 67.154541015625 5
      vertex 2.799999237060547 67.154541015625 15
    endloop
  endfacet
  facet normal 1 0 0
    outer loop
      vertex 2.799999237060547 67.154541015625 5
      vertex 2.799999237060547 62.48181915283203 15
      vertex 2.799999237060547 62.48181915283203 5
    endloop
  endfacet
  facet normal 0 -1 0
    outer loop
      vertex 2.799999237060547 67.154541015625 5
      vertex 83.19999694824219 67.154541015625 15
      vertex 2.799999237060547 67.154541015625 15
    endloop
  endfacet
  facet normal 0 -1 0
    outer loop
      vertex 83.19999694824219 67.154541015625 15
      vertex 2.799999237060547 67.154541015625 5
      vertex 83.19999694824219 67.154541015625 5
    endloop
  endfacet
  facet normal 0 1 0
    outer loop
      vertex 83.19999694824219 62.48181915283203 5
      vertex 2.799999237060547 62.48181915283203 15
      vertex 83.19999694824219 62.48181915283203 15
    endloop
  endfacet
  facet normal 0 1 0
    outer loop
      vertex 2.799999237060547 62.48181915283203 15
      vertex 83.19999694824219 62.48181915283203 5
      vertex 2.799999237060547 62.48181915283203 5
    endloop
  endfacet
  facet normal -1 0 0
    outer loop
      vertex 83.19999694824219 69.75454711914062 5
      vertex 83.19999694824219 74.4272689819336 15
      vertex 83.19999694824219 74.4272689819336 5
    endloop
  endfacet
  facet normal -1 0 0
    outer loop
      vertex 83.19999694824219 74.4272689819336 15
      vertex 83.19999694824219 69.75454711914062 5
      vertex 83.19999694824219 69.75454711914062 15
    endloop
  endfacet
  facet normal 0 0 1
    outer loop
      vertex 2.799999237060547 74.4272689819336 5
      vertex 83.19999694824219 69.75454711914062 5
      vertex 83.19999694824219 74.4272689819336 5
    endloop
  endfacet
  facet normal 0 0 1
    outer loop
      vertex 83.19999694824219 69.75454711914062 5
      vertex 2.799999237060547 74.4272689819336 5
      vertex 2.799999237060547 69.75454711914062 5
    endloop
  endfacet
  facet normal 1 0 0
    outer loop
      vertex 2.799999237060547 69.75454711914062 15
      vertex 2.799999237060547 74.4272689819336 5
      vertex 2.799999237060547 74.4272689819336 15
    endloop
  endfacet
  facet normal 1 0 0
    outer loop
      vertex 2.799999237060547 74.4272689819336 5
      vertex 2.799999237060547 69.75454711914062 15
      vertex 2.799999237060547 69.75454711914062 5
    endloop
  endfacet
  facet normal 0 -1 0
    outer loop
      vertex 2.799999237060547 74.4272689819336 5
      vertex 83.19999694824219 74.4272689819336 15
      vertex 2.799999237060547 74.4272689819336 15
    endloop
  endfacet
  facet normal 0 -1 0
    outer loop
      vertex 83.19999694824219 74.4272689819336 15
      vertex 2.799999237060547 74.4272689819336 5
      vertex 83.19999694824219 74.4272689819336 5
    endloop
  endfacet
  facet normal 0 1 0
    outer loop
      vertex 83.19999694824219 69.75454711914062 5
      vertex 2.799999237060547 69.75454711914062 15
      vertex 83.19999694824219 69.75454711914062 15
    endloop
  endfacet
  facet normal 0 1 0
    outer loop
      vertex 2.799999237060547 69.75454711914062 15
      vertex 83.19999694824219 69.75454711914062 5
      vertex 2.799999237060547 69.75454711914062 5
    endloop
  endfacet
  facet normal -1 0 0
    outer loop
      vertex 83.19999694824219 77.02727508544922 5
      vertex 83.19999694824219 81.69999694824219 15
      vertex 83.19999694824219 81.69999694824219 5
    endloop
  endfacet
  facet normal -1 0 0
    outer loop
      vertex 83.19999694824219 81.69999694824219 15
      vertex 83.19999694824219 77.02727508544922 5
      vertex 83.19999694824219 77.02727508544922 15
    endloop
  endfacet
  facet normal 0 0 1
    outer loop
      vertex 2.799999237060547 81.69999694824219 5
      vertex 83.19999694824219 77.02727508544922 5
      vertex 83.19999694824219 81.69999694824219 5
    endloop
  endfacet
  facet normal 0 0 1
    outer loop
      vertex 83.19999694824219 77.02727508544922 5
      vertex 2.799999237060547 81.69999694824219 5
      vertex 2.799999237060547 77.02727508544922 5
    endloop
  endfacet
  facet normal 1 0 0
    outer loop
      vertex 2.799999237060547 77.02727508544922 15
      vertex 2.799999237060547 81.69999694824219 5
      vertex 2.799999237060547 81.69999694824219 15
    endloop
  endfacet
  facet normal 1 0 0
    outer loop
      vertex 2.799999237060547 81.69999694824219 5
      vertex 2.799999237060547 77.02727508544922 15
      vertex 2.799999237060547 77.02727508544922 5
    endloop
  endfacet
  facet normal 0 -1 0
    outer loop
      vertex 2.799999237060547 81.69999694824219 5
      vertex 83.19999694824219 81.69999694824219 15
      vertex 2.799999237060547 81.69999694824219 15
    endloop
  endfacet
  facet normal 0 -1 0
    outer loop
      vertex 83.19999694824219 81.69999694824219 15
      vertex 2.799999237060547 81.69999694824219 5
      vertex 83.19999694824219 81.69999694824219 5
    endloop
  endfacet
  facet normal 0 1 0
    outer loop
      vertex 83.19999694824219 77.02727508544922 5
      vertex 2.799999237060547 77.02727508544922 15
      vertex 83.19999694824219 77.02727508544922 15
    endloop
  endfacet
  facet normal 0 1 0
    outer loop
      vertex 2.799999237060547 77.02727508544922 15
      vertex 83.19999694824219 77.02727508544922 5
      vertex 2.799999237060547 77.02727508544922 5
    endloop
  endfacet
  facet normal 1 0 0
    outer loop
      vertex 86 0 15
      vertex 86 86 0
      vertex 86 86 15
    endloop
  endfacet
  facet normal 1 0 0
    outer loop
      vertex 86 86 0
      vertex 86 0 15
      vertex 86 0 0
    endloop
  endfacet
  facet normal 0 0 1
    outer loop
      vertex 2.799999237060547 11.57272720336914 15
      vertex 83.19999694824219 8.972726821899414 15
      vertex 83.19999694824219 11.57272720336914 15
    endloop
  endfacet
  facet normal 0 0 1
    outer loop
      vertex 83.19999694824219 8.972726821899414 15
      vertex 2.799999237060547 11.57272720336914 15
      vertex 2.799999237060547 8.972726821899414 15
    endloop
  endfacet
  facet normal 0 0 1
    outer loop
      vertex 2.799999237060547 18.845455169677734 15
      vertex 83.19999694824219 16.245452880859375 15
      vertex 83.19999694824219 18.845455169677734 15
    endloop
  endfacet
  facet normal 0 0 1
    outer loop
      vertex 83.19999694824219 16.245452880859375 15
      vertex 2.799999237060547 18.845455169677734 15
      vertex 2.799999237060547 16.245452880859375 15
    endloop
  endfacet
  facet normal 0 0 1
    outer loop
      vertex 2.799999237060547 26.118181228637695 15
      vertex 83.19999694824219 23.51818084716797 15
      vertex 83.19999694824219 26.118181228637695 15
    endloop
  endfacet
  facet normal 0 0 1
    outer loop
      vertex 83.19999694824219 23.51818084716797 15
      vertex 2.799999237060547 26.118181228637695 15
      vertex 2.799999237060547 23.51818084716797 15
    endloop
  endfacet
  facet normal 0 0 1
    outer loop
      vertex 2.799999237060547 33.390907287597656 15
      vertex 83.19999694824219 30.790908813476562 15
      vertex 83.19999694824219 33.390907287597656 15
    endloop
  endfacet
  facet normal 0 0 1
    outer loop
      vertex 83.19999694824219 30.790908813476562 15
      vertex 2.799999237060547 33.390907287597656 15
      vertex 2.799999237060547 30.790908813476562 15
    endloop
  endfacet
  facet normal 0 0 1
    outer loop
      vertex 2.799999237060547 40.66363525390625 15
      vertex 83.19999694824219 38.063636779785156 15
      vertex 83.19999694824219 40.66363525390625 15
    endloop
  endfacet
  facet normal 0 0 1
    outer loop
      vertex 83.19999694824219 38.063636779785156 15
      vertex 2.799999237060547 40.66363525390625 15
      vertex 2.799999237060547 38.063636779785156 15
    endloop
  endfacet
  facet normal 0 0 1
    outer loop
      vertex 2.799999237060547 47.936363220214844 15
      vertex 83.19999694824219 45.33636474609375 15
      vertex 83.19999694824219 47.936363220214844 15
    endloop
  endfacet
  facet normal 0 0 1
    outer loop
      vertex 83.19999694824219 45.33636474609375 15
      vertex 2.799999237060547 47.936363220214844 15
      vertex 2.799999237060547 45.33636474609375 15
    endloop
  endfacet
  facet normal 0 0 1
    outer loop
      vertex 2.799999237060547 55.20909118652344 15
      vertex 83.19999694824219 52.609092712402344 15
      vertex 83.19999694824219 55.20909118652344 15
    endloop
  endfacet
  facet normal 0 0 1
    outer loop
      vertex 83.19999694824219 52.609092712402344 15
      vertex 2.799999237060547 55.20909118652344 15
      vertex 2.799999237060547 52.609092712402344 15
    endloop
  endfacet
  facet normal 0 0 1
    outer loop
      vertex 2.799999237060547 62.48181915283203 15
      vertex 83.19999694824219 59.88181686401367 15
      vertex 83.19999694824219 62.48181915283203 15
    endloop
  endfacet
  facet normal 0 0 1
    outer loop
      vertex 83.19999694824219 59.88181686401367 15
      vertex 2.799999237060547 62.48181915283203 15
      vertex 2.799999237060547 59.88181686401367 15
    endloop
  endfacet
  facet normal 0 0 1
    outer loop
      vertex 2.799999237060547 69.75454711914062 15
      vertex 83.19999694824219 67.154541015625 15
      vertex 83.19999694824219 69.75454711914062 15
    endloop
  endfacet
  facet normal 0 0 1
    outer loop
      vertex 83.19999694824219 67.154541015625 15
      vertex 2.799999237060547 69.75454711914062 15
      vertex 2.799999237060547 67.154541015625 15
    endloop
  endfacet
  facet normal 0 0 1
    outer loop
      vertex 2.799999237060547 77.02727508544922 15
      vertex 83.19999694824219 74.4272689819336 15
      vertex 83.19999694824219 77.02727508544922 15
    endloop
  endfacet
  facet normal 0 0 1
    outer loop
      vertex 83.19999694824219 74.4272689819336 15
      vertex 2.799999237060547 77.02727508544922 15
      vertex 2.799999237060547 74.4272689819336 15
    endloop
  endfacet
  facet normal 0 0 1
    outer loop
      vertex 83.19999694824219 77.02727508544922 15
      vertex 86 86 15
      vertex 83.19999694824219 81.69999694824219 15
    endloop
  endfacet
  facet normal 0 0 1
    outer loop
      vertex 86 86 15
      vertex 2.799999237060547 81.69999694824219 15
      vertex 83.19999694824219 81.69999694824219 15
    endloop
  endfacet
  facet normal 0 0 1
    outer loop
      vertex 0 86 15
      vertex 2.799999237060547 77.02727508544922 15
      vertex 2.799999237060547 81.69999694824219 15
    endloop
  endfacet
  facet normal 0 0 1
    outer loop
      vertex 2.799999237060547 77.02727508544922 15
      vertex 0 86 15
      vertex 2.799999237060547 74.4272689819336 15
    endloop
  endfacet
  facet normal 0 0 1
    outer loop
      vertex 2.799999237060547 74.4272689819336 15
      vertex 0 86 15
      vertex 2.799999237060547 69.75454711914062 15
    endloop
  endfacet
  facet normal 0 0 1
    outer loop
      vertex 2.799999237060547 69.75454711914062 15
      vertex 0 86 15
      vertex 2.799999237060547 67.154541015625 15
    endloop
  endfacet
  facet normal 0 0 1
    outer loop
      vertex 2.799999237060547 67.154541015625 15
      vertex 0 86 15
      vertex 2.799999237060547 62.48181915283203 15
    endloop
  endfacet
  facet normal 0 0 1
    outer loop
      vertex 2.799999237060547 62.48181915283203 15
      vertex 0 86 15
      vertex 2.799999237060547 59.88181686401367 15
    endloop
  endfacet
  facet normal 0 0 1
    outer loop
      vertex 2.799999237060547 59.88181686401367 15
      vertex 0 86 15
      vertex 2.799999237060547 55.20909118652344 15
    endloop
  endfacet
  facet normal 0 0 1
    outer loop
      vertex 2.799999237060547 55.20909118652344 15
      vertex 0 86 15
      vertex 2.799999237060547 52.609092712402344 15
    endloop
  endfacet
  facet normal 0 0 1
    outer loop
      vertex 2.799999237060547 52.609092712402344 15
      vertex 0 86 15
      vertex 2.799999237060547 47.936363220214844 15
    endloop
  endfacet
  facet normal 0 0 1
    outer loop
      vertex 2.799999237060547 47.936363220214844 15
      vertex 0 86 15
      vertex 2.799999237060547 45.33636474609375 15
    endloop
  endfacet
  facet normal 0 0 1
    outer loop
      vertex 2.799999237060547 45.33636474609375 15
      vertex 0 86 15
      vertex 2.799999237060547 40.66363525390625 15
    endloop
  endfacet
  facet normal 0 0 1
    outer loop
      vertex 0 0 15
      vertex 2.799999237060547 40.66363525390625 15
      vertex 0 86 15
    endloop
  endfacet
  facet normal 0 0 1
    outer loop
      vertex 2.799999237060547 40.66363525390625 15
      vertex 0 0 15
      vertex 2.799999237060547 38.063636779785156 15
    endloop
  endfacet
  facet normal 0 0 1
    outer loop
      vertex 2.799999237060547 38.063636779785156 15
      vertex 0 0 15
      vertex 2.799999237060547 33.390907287597656 15
    endloop
  endfacet
  facet normal 0 0 1
    outer loop
      vertex 2.799999237060547 33.390907287597656 15
      vertex 0 0 15
      vertex 2.799999237060547 30.790908813476562 15
    endloop
  endfacet
  facet normal 0 0 1
    outer loop
      vertex 2.799999237060547 30.790908813476562 15
      vertex 0 0 15
      vertex 2.799999237060547 26.118181228637695 15
    endloop
  endfacet
  facet normal 0 0 1
    outer loop
      vertex 2.799999237060547 26.118181228637695 15
      vertex 0 0 15
      vertex 2.799999237060547 23.51818084716797 15
    endloop
  endfacet
  facet normal 0 0 1
    outer loop
      vertex 2.799999237060547 23.51818084716797 15
      vertex 0 0 15
      vertex 2.799999237060547 18.845455169677734 15
    endloop
  endfacet
  facet normal 0 0 1
    outer loop
      vertex 2.799999237060547 18.845455169677734 15
      vertex 0 0 15
      vertex 2.799999237060547 16.245452880859375 15
    endloop
  endfacet
  facet normal 0 0 1
    outer loop
      vertex 2.799999237060547 16.245452880859375 15
      vertex 0 0 15
      vertex 2.799999237060547 11.57272720336914 15
    endloop
  endfacet
  facet normal 0 0 1
    outer loop
      vertex 2.799999237060547 11.57272720336914 15
      vertex 0 0 15
      vertex 2.799999237060547 8.972726821899414 15
    endloop
  endfacet
  facet normal 0 0 1
    outer loop
      vertex 0 86 15
      vertex 2.799999237060547 81.69999694824219 15
      vertex 86 86 15
    endloop
  endfacet
  facet normal 0 0 1
    outer loop
      vertex 83.19999694824219 74.4272689819336 15
      vertex 86 86 15
      vertex 83.19999694824219 77.02727508544922 15
    endloop
  endfacet
  facet normal 0 0 1
    outer loop
      vertex 83.19999694824219 69.75454711914062 15
      vertex 86 86 15
      vertex 83.19999694824219 74.4272689819336 15
    endloop
  endfacet
  facet normal 0 0 1
    outer loop
      vertex 83.19999694824219 67.154541015625 15
      vertex 86 86 15
      vertex 83.19999694824219 69.75454711914062 15
    endloop
  endfacet
  facet normal 0 0 1
    outer loop
      vertex 83.19999694824219 62.48181915283203 15
      vertex 86 86 15
      vertex 83.19999694824219 67.154541015625 15
    endloop
  endfacet
  facet normal 0 0 1
    outer loop
      vertex 83.19999694824219 59.88181686401367 15
      vertex 86 86 15
      vertex 83.19999694824219 62.48181915283203 15
    endloop
  endfacet
  facet normal 0 0 1
    outer loop
      vertex 83.19999694824219 55.20909118652344 15
      vertex 86 86 15
      vertex 83.19999694824219 59.88181686401367 15
    endloop
  endfacet
  facet normal 0 0 1
    outer loop
      vertex 83.19999694824219 52.609092712402344 15
      vertex 86 86 15
      vertex 83.19999694824219 55.20909118652344 15
    endloop
  endfacet
  facet normal 0 0 1
    outer loop
      vertex 83.19999694824219 47.936363220214844 15
      vertex 86 86 15
      vertex 83.19999694824219 52.609092712402344 15
    endloop
  endfacet
  facet normal 0 0 1
    outer loop
      vertex 83.19999694824219 45.33636474609375 15
      vertex 86 86 15
      vertex 83.19999694824219 47.936363220214844 15
    endloop
  endfacet
  facet normal 0 0 1
    outer loop
      vertex 86 86 15
      vertex 83.19999694824219 45.33636474609375 15
      vertex 86 0 15
    endloop
  endfacet
  facet normal 0 0 1
    outer loop
      vertex 83.19999694824219 40.66363525390625 15
      vertex 86 0 15
      vertex 83.19999694824219 45.33636474609375 15
    endloop
  endfacet
  facet normal 0 0 1
    outer loop
      vertex 83.19999694824219 38.063636779785156 15
      vertex 86 0 15
      vertex 83.19999694824219 40.66363525390625 15
    endloop
  endfacet
  facet normal 0 0 1
    outer loop
      vertex 83.19999694824219 33.390907287597656 15
      vertex 86 0 15
      vertex 83.19999694824219 38.063636779785156 15
    endloop
  endfacet
  facet normal 0 0 1
    outer loop
      vertex 83.19999694824219 30.790908813476562 15
      vertex 86 0 15
      vertex 83.19999694824219 33.390907287597656 15
    endloop
  endfacet
  facet normal 0 0 1
    outer loop
      vertex 83.19999694824219 26.118181228637695 15
      vertex 86 0 15
      vertex 83.19999694824219 30.790908813476562 15
    endloop
  endfacet
  facet normal 0 0 1
    outer loop
      vertex 83.19999694824219 23.51818084716797 15
      vertex 86 0 15
      vertex 83.19999694824219 26.118181228637695 15
    endloop
  endfacet
  facet normal 0 0 1
    outer loop
      vertex 83.19999694824219 18.845455169677734 15
      vertex 86 0 15
      vertex 83.19999694824219 23.51818084716797 15
    endloop
  endfacet
  facet normal 0 0 1
    outer loop
      vertex 83.19999694824219 16.245452880859375 15
      vertex 86 0 15
      vertex 83.19999694824219 18.845455169677734 15
    endloop
  endfacet
  facet normal 0 0 1
    outer loop
      vertex 83.19999694824219 11.57272720336914 15
      vertex 86 0 15
      vertex 83.19999694824219 16.245452880859375 15
    endloop
  endfacet
  facet normal 0 0 1
    outer loop
      vertex 83.19999694824219 8.972726821899414 15
      vertex 86 0 15
      vertex 83.19999694824219 11.57272720336914 15
    endloop
  endfacet
  facet normal 0 0 1
    outer loop
      vertex 83.19999694824219 4.299999237060547 15
      vertex 86 0 15
      vertex 83.19999694824219 8.972726821899414 15
    endloop
  endfacet
  facet normal 0 0 1
    outer loop
      vertex 2.799999237060547 4.299999237060547 15
      vertex 86 0 15
      vertex 83.19999694824219 4.299999237060547 15
    endloop
  endfacet
  facet normal 0 0 1
    outer loop
      vertex 2.799999237060547 4.299999237060547 15
      vertex 0 0 15
      vertex 86 0 15
    endloop
  endfacet
  facet normal 0 0 1
    outer loop
      vertex 2.799999237060547 8.972726821899414 15
      vertex 0 0 15
      vertex 2.799999237060547 4.299999237060547 15
    endloop
  endfacet
  facet normal 0 0 -1
    outer loop
      vertex 0 0 0
      vertex 86 86 0
      vertex 86 0 0
    endloop
  endfacet
  facet normal 0 0 -1
    outer loop
      vertex 86 86 0
      vertex 0 0 0
      vertex 0 86 0
    endloop
  endfacet
  facet normal -1 0 0
    outer loop
      vertex 0 0 0
      vertex 0 86 15
      vertex 0 86 0
    endloop
  endfacet
  facet normal -1 0 0
    outer loop
      vertex 0 86 15
      vertex 0 0 0
      vertex 0 0 15
    endloop
  endfacet
  facet normal 0 1 0
    outer loop
      vertex 86 86 0
      vertex 0 86 15
      vertex 86 86 15
    endloop
  endfacet
  facet normal 0 1 0
    outer loop
      vertex 0 86 15
      vertex 86 86 0
      vertex 0 86 0
    endloop
  endfacet
  facet normal 0 -1 0
    outer loop
      vertex 0 0 0
      vertex 86 0 15
      vertex 0 0 15
    endloop
  endfacet
  facet normal 0 -1 0
    outer loop
      vertex 86 0 15
      vertex 0 0 0
      vertex 86 0 0
    endloop
  endfacet
endsolid OpenSCAD_Model
